<svg width="66" height="66" viewBox="0 0 66 66" fill="none" xmlns="http://www.w3.org/2000/svg">
<path d="M21.1211 15.6191V10.8066C21.1211 9.16561 21.773 7.5918 22.9334 6.43142C24.0938 5.27104 25.6676 4.61914 27.3086 4.61914H36.9336C38.5746 4.61914 40.1484 5.27104 41.3088 6.43142C42.4692 7.5918 43.1211 9.16561 43.1211 10.8066V15.6191H47.9336C50.304 15.6191 52.5773 16.5608 54.2534 18.2369C55.9295 19.913 56.8711 22.1863 56.8711 24.5566V28.6816C56.8711 30.4114 55.9608 31.9266 54.5913 32.7736C53.6878 31.7067 52.5626 30.8495 51.2941 30.2616C50.0256 29.6736 48.6442 29.3691 47.2461 29.3691C43.9736 29.3691 41.0861 30.9999 39.3453 33.4941H37.6211V32.1191C37.6211 31.3898 37.3314 30.6903 36.8156 30.1746C36.2999 29.6589 35.6004 29.3691 34.8711 29.3691H29.3711C28.6417 29.3691 27.9423 29.6589 27.4265 30.1746C26.9108 30.6903 26.6211 31.3898 26.6211 32.1191V33.4941H12.1836C10.9072 33.4941 9.68316 32.9871 8.78064 32.0846C7.87812 31.1821 7.37109 29.958 7.37109 28.6816V24.5566C7.37109 22.1863 8.31272 19.913 9.98883 18.2369C11.6649 16.5608 13.9382 15.6191 16.3086 15.6191H21.1211ZM36.9336 8.74414H27.3086C26.7616 8.74414 26.237 8.96144 25.8502 9.34823C25.4634 9.73503 25.2461 10.2596 25.2461 10.8066V15.6191H38.9961V10.8066C38.9961 10.2596 38.7788 9.73503 38.392 9.34823C38.0052 8.96144 37.4806 8.74414 36.9336 8.74414ZM37.7173 37.6191H37.6211C37.6211 38.3485 37.3314 39.048 36.8156 39.5637C36.2999 40.0794 35.6004 40.3691 34.8711 40.3691H29.3711C28.6417 40.3691 27.9423 40.0794 27.4265 39.5637C26.9108 39.048 26.6211 38.3485 26.6211 37.6191H12.1836C10.4783 37.6218 8.80799 37.1351 7.37109 36.2166V45.1816C7.37109 47.552 8.31272 49.8253 9.98883 51.5014C11.6649 53.1775 13.9382 54.1191 16.3086 54.1191H32.1266L32.1211 53.7754V53.4921C32.1204 52.4906 32.3171 51.4988 32.7001 50.5735C33.0832 49.6481 33.6449 48.8073 34.3532 48.0993C35.0615 47.3912 35.9024 46.8298 36.8279 46.4471C37.7535 46.0645 38.7453 45.8681 39.7468 45.8691H40.5086C39.4257 44.8115 38.6084 43.5128 38.1233 42.079C37.6382 40.6452 37.4991 39.117 37.7173 37.6191ZM54.1211 38.9941C54.1211 40.8175 53.3968 42.5662 52.1075 43.8555C50.8181 45.1448 49.0695 45.8691 47.2461 45.8691C45.4227 45.8691 43.674 45.1448 42.3847 43.8555C41.0954 42.5662 40.3711 40.8175 40.3711 38.9941C40.3711 37.1708 41.0954 35.4221 42.3847 34.1328C43.674 32.8435 45.4227 32.1191 47.2461 32.1191C49.0695 32.1191 50.8181 32.8435 52.1075 34.1328C53.3968 35.4221 54.1211 37.1708 54.1211 38.9941ZM59.6211 53.7754C59.6211 58.0544 56.0846 62.3691 47.2461 62.3691C38.4076 62.3691 34.8711 58.0709 34.8711 53.7754V53.4921C34.8711 50.7971 37.0546 48.6191 39.7468 48.6191H54.7453C57.4403 48.6191 59.6211 50.7999 59.6211 53.4921V53.7754Z" fill="url(#paint0_linear_1_931)"/>
<defs>
<linearGradient id="paint0_linear_1_931" x1="-126.448" y1="33.4941" x2="193.901" y2="33.4941" gradientUnits="userSpaceOnUse">
<stop offset="0.41695" stop-color="#1C7660"/>
<stop offset="0.59" stop-color="#37C5A3"/>
</linearGradient>
</defs>
</svg>
