<svg width="66" height="66" viewBox="0 0 66 66" fill="none" xmlns="http://www.w3.org/2000/svg">
<path d="M26.8136 20.5301C27.2096 17.4611 27.8696 14.7386 28.7078 12.554C29.4107 10.7258 30.2093 9.35628 31.0112 8.47518C31.8131 7.59408 32.4863 7.33008 33.0011 7.33008C33.5159 7.33008 34.1891 7.59408 34.991 8.47518C35.7929 9.35628 36.5915 10.7258 37.2944 12.554C38.1359 14.7386 38.7959 17.4611 39.1886 20.5301H26.8136ZM25.6256 11.3693C26.0711 10.2176 26.5727 9.15168 27.137 8.21118C24.1918 9.12893 21.5009 10.7199 19.2773 12.8582C17.0537 14.9964 15.3587 17.6231 14.3264 20.5301H23.4872C23.903 17.0651 24.6389 13.9334 25.6256 11.3693ZM40.3799 11.3693C39.9703 10.274 39.4646 9.21718 38.8685 8.21118C41.8131 9.12937 44.5034 10.7206 46.7263 12.8588C48.9493 14.997 50.6439 17.6234 51.6758 20.5301H42.515C42.0992 17.0651 41.36 13.9334 40.3733 11.3693M42.8021 23.8301H52.5239C52.8932 26.0146 52.8932 28.2456 52.5239 30.4301H42.8021C42.9316 28.232 42.9316 26.0282 42.8021 23.8301ZM42.5117 33.7301H51.6725C50.6403 36.6371 48.9452 39.2638 46.7216 41.402C44.498 43.5402 41.8071 45.1312 38.8619 46.049C39.4229 45.1085 39.9278 44.0426 40.37 42.8909C41.36 40.3268 42.0959 37.1951 42.515 33.7301M34.991 45.785C34.1891 46.6661 33.5159 46.9301 33.0011 46.9301C32.4863 46.9301 31.8131 46.6661 31.0112 45.785C30.2093 44.9039 29.4107 43.5344 28.7078 41.7062C27.8663 39.5216 27.2063 36.8024 26.8136 33.7301H39.1886C38.7926 36.7991 38.1326 39.5216 37.2944 41.7062C36.5915 43.5344 35.7929 44.9039 34.991 45.785ZM14.3264 33.7301C15.3587 36.6371 17.0537 39.2638 19.2773 41.402C21.5009 43.5402 24.1918 45.1312 27.137 46.049C26.5421 45.0429 26.0374 43.986 25.6289 42.8909C24.6389 40.3268 23.903 37.1951 23.4839 33.7301H14.3264ZM23.1968 30.4301H13.475C13.1058 28.2456 13.1058 26.0146 13.475 23.8301H23.1968C23.0673 26.0282 23.0673 28.232 23.1968 30.4301ZM26.5001 23.8301C26.3625 26.0279 26.3625 28.2322 26.5001 30.4301H39.5021C39.6397 28.2322 39.6397 26.0279 39.5021 23.8301H26.5001ZM11.5511 40.3301H14.0426C14.8632 41.5071 15.7839 42.5983 16.8047 43.6037C16.7045 43.6218 16.6029 43.6307 16.5011 43.6301L14.0426 43.6037L12.8381 51.2713L33.0011 50.1134L53.1641 51.2713L52.1066 43.745L49.5011 43.6301C49.3993 43.6307 49.2977 43.6218 49.1975 43.6037C50.2176 42.6004 51.1423 41.5045 51.9596 40.3301H54.4511C54.8192 40.3302 55.1766 40.4533 55.4666 40.68C55.7566 40.9066 55.9625 41.2237 56.0516 41.5808L59.3516 54.7808C59.4123 55.024 59.4167 55.2778 59.3646 55.5229C59.3126 55.7681 59.2053 55.9982 59.0511 56.1957C58.8968 56.3932 58.6995 56.553 58.4743 56.6629C58.2491 56.7728 58.0017 56.83 57.7511 56.8301H8.25111C8.00048 56.83 7.75315 56.7728 7.52791 56.6629C7.30267 56.553 7.10543 56.3932 6.95116 56.1957C6.79689 55.9982 6.68965 55.7681 6.63757 55.5229C6.5855 55.2778 6.58995 55.024 6.65061 54.7808L9.95061 41.5808C10.0397 41.2237 10.2456 40.9066 10.5356 40.68C10.8256 40.4533 11.1831 40.3302 11.5511 40.3301Z" fill="url(#paint0_linear_1_940)"/>
<defs>
<linearGradient id="paint0_linear_1_940" x1="-128.624" y1="32.0801" x2="195.091" y2="32.0801" gradientUnits="userSpaceOnUse">
<stop offset="0.41695" stop-color="#1C7660"/>
<stop offset="0.59" stop-color="#37C5A3"/>
</linearGradient>
</defs>
</svg>
