<svg width="66" height="66" viewBox="0 0 66 66" fill="none" xmlns="http://www.w3.org/2000/svg">
<path fill-rule="evenodd" clip-rule="evenodd" d="M32.9992 46.1996C38.2505 46.1996 43.2867 44.1135 46.9999 40.4003C50.7132 36.6871 52.7992 31.6509 52.7992 26.3996C52.7992 21.1483 50.7132 16.1121 46.9999 12.3989C43.2867 8.68567 38.2505 6.59961 32.9992 6.59961C27.7479 6.59961 22.7117 8.68567 18.9985 12.3989C15.2853 16.1121 13.1992 21.1483 13.1992 26.3996C13.1992 31.6509 15.2853 36.6871 18.9985 40.4003C22.7117 44.1135 27.7479 46.1996 32.9992 46.1996ZM32.9992 17.9139C32.1959 17.9139 31.6585 18.8756 30.5836 20.8075L30.3064 21.3054C30.0009 21.8541 29.8482 22.1256 29.6106 22.3067C29.3702 22.4877 29.0732 22.5556 28.4792 22.6885L27.9417 22.813C25.8542 23.2854 24.8105 23.5201 24.5616 24.3178C24.3127 25.1183 25.0255 25.9499 26.4482 27.6131L26.816 28.043C27.2204 28.5154 27.4241 28.7502 27.5146 29.0443C27.6051 29.3385 27.574 29.6525 27.5146 30.2832L27.458 30.8574C27.2431 33.0779 27.1356 34.1895 27.7833 34.6817C28.4339 35.1738 29.4126 34.7241 31.3671 33.8246L31.8706 33.5927C32.4278 33.3381 32.705 33.2108 32.9992 33.2108C33.2934 33.2108 33.5706 33.3381 34.1278 33.5927L34.6313 33.8246C36.5858 34.7269 37.5645 35.1738 38.2151 34.6817C38.8657 34.1895 38.7554 33.0779 38.5404 30.8574L38.4838 30.2832C38.4244 29.6525 38.3933 29.3385 38.4838 29.0443C38.5743 28.753 38.778 28.5154 39.1825 28.043L39.5502 27.6131C40.973 25.9499 41.6858 25.1183 41.4368 24.3178C41.1879 23.5201 40.1442 23.2854 38.0567 22.813L37.5193 22.6885C36.9253 22.5556 36.6283 22.4905 36.3878 22.3067C36.1502 22.1256 35.9975 21.8541 35.692 21.3054L35.4148 20.8075C34.34 18.8756 33.8025 17.9139 32.9992 17.9139Z" fill="url(#paint0_linear_1_935)"/>
<path d="M11.9484 37.1279L7.73261 41.6145C6.21796 43.2302 5.46063 44.0352 5.19697 44.719C4.59952 46.2771 5.11282 48.0025 6.41149 48.8219C6.9837 49.1796 8.01029 49.2922 10.0719 49.5143C11.2331 49.6413 11.8166 49.7048 12.3018 49.8981C13.3929 50.328 14.2372 51.2311 14.6439 52.3909C14.8234 52.9103 14.8823 53.5277 15.0001 54.7655C15.2105 56.9583 15.3171 58.0547 15.6537 58.6635C16.4222 60.0484 18.0463 60.5938 19.5076 59.9561C20.1471 59.6791 20.9045 58.8713 22.4219 57.2584L29.3837 49.8433C25.7164 49.2635 22.231 47.8121 19.2044 45.6043C16.1778 43.3965 13.6933 40.4961 11.9484 37.1279ZM36.6175 49.8461L43.5793 57.2613C45.094 58.877 45.8513 59.682 46.4908 59.9619C47.9522 60.5966 49.5762 60.0513 50.3448 58.6664C50.6814 58.0605 50.7851 56.9641 50.9955 54.7713C51.1161 53.5306 51.175 52.9132 51.3545 52.3938C51.7584 51.2339 52.6055 50.3309 53.6966 49.901C54.1819 49.7076 54.7625 49.6471 55.9265 49.5201C57.9853 49.2951 59.0147 49.1825 59.5869 48.8248C60.8856 48.0053 61.3989 46.2771 60.8015 44.7219C60.5378 44.0381 59.7805 43.2302 58.2658 41.6174L54.05 37.1279C52.3051 40.4961 49.8206 43.3994 46.794 45.6072C43.7674 47.815 40.2821 49.2664 36.6147 49.8461" fill="url(#paint1_linear_1_935)"/>
<defs>
<linearGradient id="paint0_linear_1_935" x1="-88.2218" y1="26.3996" x2="154.569" y2="26.3996" gradientUnits="userSpaceOnUse">
<stop offset="0.41695" stop-color="#1C7660"/>
<stop offset="0.59" stop-color="#37C5A3"/>
</linearGradient>
<linearGradient id="paint1_linear_1_935" x1="-138.731" y1="48.675" x2="205.223" y2="48.675" gradientUnits="userSpaceOnUse">
<stop offset="0.41695" stop-color="#1C7660"/>
<stop offset="0.59" stop-color="#37C5A3"/>
</linearGradient>
</defs>
</svg>
