<svg width="39" height="40" viewBox="0 0 39 40" fill="none" xmlns="http://www.w3.org/2000/svg">
<path d="M14.625 17.5625C15.9712 17.5625 17.0625 16.4712 17.0625 15.125C17.0625 13.7788 15.9712 12.6875 14.625 12.6875C13.2788 12.6875 12.1875 13.7788 12.1875 15.125C12.1875 16.4712 13.2788 17.5625 14.625 17.5625Z" fill="#EC1E1E"/>
<path d="M24.375 17.5625C25.7212 17.5625 26.8125 16.4712 26.8125 15.125C26.8125 13.7788 25.7212 12.6875 24.375 12.6875C23.0288 12.6875 21.9375 13.7788 21.9375 15.125C21.9375 16.4712 23.0288 17.5625 24.375 17.5625Z" fill="#EC1E1E"/>
<path d="M19.5 37.0625C10.0913 37.0625 2.4375 29.4088 2.4375 20C2.4375 10.5913 10.0913 2.9375 19.5 2.9375C28.9088 2.9375 36.5625 10.5913 36.5625 20C36.5625 29.4088 28.9088 37.0625 19.5 37.0625ZM19.5 5.375C11.4319 5.375 4.875 11.9319 4.875 20C4.875 28.0681 11.4319 34.625 19.5 34.625C27.5681 34.625 34.125 28.0681 34.125 20C34.125 11.9319 27.5681 5.375 19.5 5.375Z" fill="#EC1E1E"/>
<path d="M26.3943 28.5312C25.8824 28.5312 25.4193 28.2144 25.2487 27.7269C24.8294 26.536 24.0509 25.5046 23.0205 24.775C21.9901 24.0454 20.7587 23.6536 19.4962 23.6536C18.2337 23.6536 17.0022 24.0454 15.9719 24.775C14.9415 25.5046 14.163 26.536 13.7437 27.7269C13.5243 28.3606 12.8174 28.7019 12.1837 28.4581C12.0319 28.4056 11.8922 28.3232 11.7728 28.2157C11.6534 28.1083 11.5568 27.978 11.4886 27.8326C11.4204 27.6871 11.3821 27.5295 11.3759 27.369C11.3697 27.2085 11.3957 27.0484 11.4524 26.8981C12.6468 23.4856 15.8887 21.2188 19.4962 21.2188C23.1037 21.2188 26.3456 23.51 27.5399 26.8981C27.6065 27.0821 27.6277 27.2794 27.6019 27.4734C27.576 27.6673 27.5039 27.8522 27.3915 28.0124C27.2792 28.1726 27.1299 28.3034 26.9563 28.3937C26.7827 28.484 26.59 28.5312 26.3943 28.5312Z" fill="#EC1E1E"/>
</svg>
