<svg width="73" height="73" viewBox="0 0 73 73" fill="none" xmlns="http://www.w3.org/2000/svg">
<circle cx="36.5029" cy="36.5" r="35.5" fill="url(#paint0_linear_1_1070)" stroke="white" stroke-opacity="0.2"/>
<path d="M49.9453 36.871V35.1175L52.2053 33.1921C52.622 32.8345 52.8954 32.3451 52.9772 31.8103C53.0591 31.2755 52.9441 30.7298 52.6527 30.2695L49.8746 25.6851C49.6682 25.337 49.3714 25.0478 49.014 24.8467C48.6565 24.6455 48.251 24.5394 47.8382 24.539C47.5823 24.5371 47.3279 24.5758 47.0848 24.6536L44.2244 25.5934C43.7312 25.2728 43.216 24.9856 42.6824 24.7338L42.082 21.8456C41.9744 21.318 41.6795 20.844 41.2491 20.5067C40.8187 20.1693 40.2802 19.9901 39.7278 20.0004H34.2188C33.6664 19.9901 33.1278 20.1693 32.6974 20.5067C32.267 20.844 31.9722 21.318 31.8645 21.8456L31.2642 24.7338C30.7274 24.9867 30.2083 25.2739 29.7104 25.5934L26.9088 24.6078C26.6631 24.5454 26.4087 24.5222 26.1554 24.539C25.7426 24.5394 25.3371 24.6455 24.9797 24.8467C24.6222 25.0478 24.3254 25.337 24.119 25.6851L21.341 30.2695C21.0662 30.7291 20.9641 31.2674 21.0522 31.7922C21.1402 32.317 21.4129 32.7956 21.8236 33.1462L24.0484 35.129V36.8825L21.8236 38.808C21.4013 39.1609 21.1211 39.6482 21.0328 40.1832C20.9444 40.7182 21.0536 41.2664 21.341 41.7305L24.119 46.3149C24.3254 46.663 24.6222 46.9522 24.9797 47.1533C25.3371 47.3545 25.7426 47.4606 26.1554 47.461C26.4113 47.4629 26.6657 47.4242 26.9088 47.3464L29.7692 46.4066C30.2624 46.7272 30.7776 47.0144 31.3113 47.2662L31.9116 50.1544C32.0192 50.682 32.3141 51.156 32.7445 51.4933C33.1749 51.8307 33.7134 52.0099 34.2659 51.9996H39.8219C40.3744 52.0099 40.9129 51.8307 41.3433 51.4933C41.7737 51.156 42.0685 50.682 42.1762 50.1544L42.7765 47.2662C43.3133 47.0133 43.8324 46.7261 44.3303 46.4066L47.179 47.3464C47.4221 47.4242 47.6765 47.4629 47.9324 47.461C48.3452 47.4606 48.7507 47.3545 49.1081 47.1533C49.4656 46.9522 49.7624 46.663 49.9688 46.3149L52.6527 41.7305C52.9274 41.2709 53.0295 40.7326 52.9415 40.2078C52.8534 39.683 52.5807 39.2044 52.17 38.8538L49.9453 36.871ZM47.8382 45.1688L43.8006 43.8393C42.8549 44.618 41.7748 45.2272 40.6106 45.6387L39.7748 49.7532H34.2188L33.383 45.6846C32.228 45.2615 31.1537 44.6533 30.2048 43.8852L26.1554 45.1688L23.3774 40.5844L26.5792 37.8338C26.3615 36.6474 26.3615 35.4328 26.5792 34.2465L23.3774 31.4156L26.1554 26.8312L30.193 28.1607C31.1387 27.382 32.2188 26.7728 33.383 26.3613L34.2188 22.2468H39.7748L40.6106 26.3154C41.7657 26.7385 42.8399 27.3467 43.7889 28.1148L47.8382 26.8312L50.6162 31.4156L47.4144 34.1662C47.6321 35.3526 47.6321 36.5672 47.4144 37.7535L50.6162 40.5844L47.8382 45.1688Z" fill="white"/>
<path d="M37.0028 42.9996C35.6183 42.9996 34.265 42.5891 33.1139 41.82C31.9627 41.0508 31.0656 39.9576 30.5358 38.6785C30.006 37.3995 29.8673 35.9921 30.1374 34.6342C30.4075 33.2764 31.0742 32.0291 32.0531 31.0502C33.0321 30.0713 34.2793 29.4046 35.6372 29.1345C36.995 28.8644 38.4024 29.003 39.6815 29.5328C40.9605 30.0626 42.0537 30.9598 42.8229 32.1109C43.592 33.262 44.0026 34.6154 44.0026 35.9998C44.0119 36.9217 43.8373 37.8361 43.4888 38.6896C43.1403 39.5431 42.6251 40.3184 41.9732 40.9703C41.3214 41.6222 40.546 42.1374 39.6925 42.4859C38.839 42.8343 37.9246 43.009 37.0028 42.9996ZM37.0028 31.3333C36.386 31.3189 35.7728 31.4298 35.2001 31.6592C34.6274 31.8887 34.1072 32.2319 33.671 32.6681C33.2348 33.1043 32.8916 33.6245 32.6622 34.1972C32.4327 34.7698 32.3218 35.3831 32.3362 35.9998C32.3218 36.6166 32.4327 37.2298 32.6622 37.8025C32.8916 38.3752 33.2348 38.8953 33.671 39.3316C34.1072 39.7678 34.6274 40.111 35.2001 40.3404C35.7728 40.5699 36.386 40.6807 37.0028 40.6664C37.6195 40.6807 38.2328 40.5699 38.8054 40.3404C39.3781 40.111 39.8983 39.7678 40.3345 39.3316C40.7707 38.8953 41.1139 38.3752 41.3434 37.8025C41.5728 37.2298 41.6837 36.6166 41.6693 35.9998C41.6837 35.3831 41.5728 34.7698 41.3434 34.1972C41.1139 33.6245 40.7707 33.1043 40.3345 32.6681C39.8983 32.2319 39.3781 31.8887 38.8054 31.6592C38.2328 31.4298 37.6195 31.3189 37.0028 31.3333Z" fill="white"/>
<defs>
<linearGradient id="paint0_linear_1_1070" x1="-180.838" y1="36.5" x2="254.469" y2="36.5" gradientUnits="userSpaceOnUse">
<stop offset="0.41695" stop-color="#1C7660"/>
<stop offset="0.59" stop-color="#37C5A3"/>
</linearGradient>
</defs>
</svg>
