<svg width="72" height="71" viewBox="0 0 72 71" fill="none" xmlns="http://www.w3.org/2000/svg">
<circle cx="36.2271" cy="35.5" r="35.5" fill="url(#paint0_linear_1_1078)"/>
<path d="M29.7136 26.849H43.5265V28.2204H29.7136V26.849ZM42.9895 30.2776H29.7136V31.6491H41.6091L42.9895 30.2776ZM33.8523 44.7395C34.0844 45.0037 34.379 45.2066 34.7096 45.3299C35.0402 45.4532 35.3965 45.493 35.7464 45.4458H42.4837C42.6439 45.4458 42.7976 45.3826 42.911 45.2701C43.0243 45.1575 43.088 45.0049 43.088 44.8458C43.088 44.6867 43.0243 44.534 42.911 44.4215C42.7976 44.309 42.6439 44.2458 42.4837 44.2458H35.7464C34.9599 44.2321 35.0998 43.5541 35.2103 43.3441C35.354 43.0974 35.4663 42.834 35.5444 42.5598C35.5965 42.339 35.5724 42.1073 35.4759 41.9018C35.3795 41.6963 35.2163 41.529 35.0126 41.4266C34.6858 41.2806 34.3197 41.2448 33.9705 41.3248C33.6213 41.4049 33.3081 41.5963 33.0788 41.8698C32.7818 42.174 32.3691 42.6395 31.9737 43.0921C32.2181 42.1415 32.5349 40.9217 32.8457 39.732C32.9347 39.4609 32.917 39.1664 32.7961 38.9078C32.6751 38.6492 32.4599 38.4457 32.1939 38.3383C31.8993 38.2379 31.5772 38.2522 31.2928 38.3784C31.0084 38.5046 30.7828 38.7331 30.6615 39.018C30.2886 39.7303 27.3361 44.6426 27.3067 44.6924C27.266 44.76 27.2391 44.835 27.2276 44.9129C27.2161 44.9909 27.2201 45.0703 27.2395 45.1467C27.2787 45.3011 27.378 45.4336 27.5156 45.5152C27.6532 45.5968 27.8179 45.6208 27.9733 45.5819C28.1287 45.543 28.2622 45.4444 28.3444 45.3078C28.4549 45.1235 30.8117 41.2037 31.555 39.8949C30.9956 42.0378 30.3792 44.4224 30.343 44.6366C30.3023 44.7942 30.3146 44.9606 30.378 45.1106C30.4415 45.2605 30.5525 45.3858 30.6943 45.4672C30.8524 45.545 31.032 45.5684 31.2049 45.5336C31.3778 45.4989 31.5341 45.408 31.6491 45.2752C31.7579 45.1775 31.9617 44.9452 32.4753 44.3529C32.9539 43.794 33.4441 43.2451 33.9455 42.7063C34.1337 42.5092 34.2477 42.5966 34.1372 42.7903C33.921 43.0615 33.7807 43.3846 33.7307 43.7269C33.6807 44.0692 33.7226 44.4185 33.8523 44.7395Z" fill="white"/>
<path d="M34.319 43.0403C34.319 43.0403 34.3186 43.0406 34.3178 43.0413L34.319 43.0403ZM35.7464 44.9458H35.7128L35.6796 44.9503C35.4111 44.9865 35.1378 44.9559 34.8843 44.8614C34.6579 44.777 34.4539 44.644 34.2864 44.4726C34.2134 44.2563 34.1923 44.0256 34.2254 43.7992C34.2626 43.5447 34.3669 43.3042 34.5281 43.1021L34.5523 43.0718L34.5715 43.0381C34.6211 42.9512 34.6714 42.8334 34.6795 42.6973C34.6872 42.5664 34.652 42.3082 34.398 42.1657C34.1714 42.0386 33.9528 42.1123 33.8593 42.1558C33.7485 42.2074 33.6567 42.2848 33.5839 42.3611L33.5839 42.3611L33.5796 42.3657C33.0737 42.9091 32.5793 43.4628 32.0965 44.0266C31.568 44.636 31.3936 44.8327 31.315 44.9033L31.2918 44.9241L31.2714 44.9477C31.2291 44.9964 31.1711 45.0304 31.1063 45.0435C31.0469 45.0554 30.9854 45.049 30.9301 45.0255C30.889 44.9984 30.8573 44.9601 30.8385 44.9158C30.8178 44.8668 30.8139 44.8128 30.8271 44.7616L30.8324 44.741L30.836 44.7201C30.8359 44.7201 30.836 44.72 30.836 44.7198C30.8364 44.7178 30.8386 44.7063 30.8444 44.6805C30.8503 44.654 30.8585 44.6189 30.8689 44.5751C30.8897 44.4877 30.9185 44.3706 30.9541 44.2277C31.0253 43.9421 31.1229 43.5583 31.2371 43.1132C31.4654 42.2234 31.7592 41.0923 32.0388 40.0212L31.1203 39.648C30.4255 40.8713 28.3075 44.398 27.9599 44.9769C27.9377 45.0138 27.9227 45.0387 27.9158 45.0503C27.9022 45.0728 27.8795 45.09 27.8519 45.0969L27.9733 45.5819L27.8519 45.0969C27.8241 45.1039 27.7948 45.0995 27.7707 45.0852C27.7467 45.071 27.7305 45.0486 27.7241 45.0237C27.721 45.0114 27.7204 44.9986 27.7222 44.9861C27.7241 44.9735 27.7284 44.9613 27.7351 44.9501L27.7352 44.9501L27.7373 44.9466L27.7386 44.9443C27.74 44.942 27.7426 44.9377 27.7467 44.9308L27.7739 44.8855L27.8728 44.7207L28.2198 44.1419C28.5066 43.663 28.8903 43.0217 29.2848 42.3596C30.0679 41.0451 30.9097 39.6219 31.1045 39.2499L31.1137 39.2322L31.1216 39.2139C31.193 39.0461 31.3263 38.9105 31.4956 38.8355C31.6607 38.7622 31.8473 38.7522 32.0193 38.8072C32.1629 38.8687 32.278 38.9802 32.3432 39.1196C32.4102 39.263 32.42 39.4259 32.3707 39.576L32.3658 39.5907L32.3619 39.6056C32.051 40.7957 31.734 42.0161 31.4895 42.9676L32.3503 43.421C32.7468 42.9671 33.1507 42.5119 33.4366 42.219L33.4498 42.2055L33.4619 42.191C33.621 42.0013 33.8387 41.868 34.0822 41.8122C34.3218 41.7573 34.5726 41.7806 34.7974 41.8782C34.8971 41.9308 34.9762 42.0138 35.0233 42.1143C35.0704 42.2147 35.0832 42.3273 35.0599 42.4352C34.9935 42.6647 34.8989 42.8854 34.7783 43.0923L34.7729 43.1016L34.7678 43.1112C34.6746 43.2884 34.5688 43.6385 34.657 43.9902C34.7057 44.1845 34.817 44.3863 35.0236 44.5347C35.2247 44.6791 35.4715 44.7411 35.7377 44.7457L35.7377 44.7458H35.7464H42.4837C42.5125 44.7458 42.5394 44.7572 42.5587 44.7763C42.5779 44.7954 42.588 44.8204 42.588 44.8458C42.588 44.8711 42.5779 44.8962 42.5587 44.9152C42.5394 44.9344 42.5125 44.9458 42.4837 44.9458H35.7464ZM30.2136 27.349H43.0265V27.7204H30.2136V27.349ZM30.2136 30.7776H41.7768L41.403 31.1491H30.2136V30.7776Z" stroke="white" stroke-opacity="0.2"/>
<path d="M46.671 38.2037V47.1301H25.707V22.8759H46.671V27.2009L47.8327 26.0488C48.0115 25.8739 48.2076 25.7172 48.418 25.5811V22.0097C48.418 21.7799 48.3259 21.5596 48.1621 21.3971C47.9983 21.2347 47.7761 21.1434 47.5445 21.1434H24.8335C24.6018 21.1434 24.3796 21.2347 24.2158 21.3971C24.052 21.5596 23.96 21.7799 23.96 22.0097V47.9963C23.96 48.226 24.052 48.4463 24.2158 48.6088C24.3796 48.7712 24.6018 48.8625 24.8335 48.8625H47.5445C47.7761 48.8625 47.9983 48.7712 48.1621 48.6088C48.3259 48.4463 48.418 48.226 48.418 47.9963V37.9715C47.8824 38.2538 47.2625 38.3362 46.671 38.2037Z" fill="white"/>
<path d="M47.918 38.6867V47.9963C47.918 48.0921 47.8796 48.1848 47.8101 48.2538C47.7403 48.3229 47.6449 48.3625 47.5445 48.3625H24.8335C24.7331 48.3625 24.6376 48.3229 24.5679 48.2538C24.4983 48.1848 24.46 48.0921 24.46 47.9963V22.0097C24.46 21.9139 24.4983 21.8212 24.5679 21.7522C24.6376 21.683 24.7331 21.6434 24.8335 21.6434H47.5445C47.6449 21.6434 47.7403 21.683 47.81 21.7522C47.8796 21.8212 47.918 21.9139 47.918 22.0097V25.3199C47.7648 25.4338 47.6195 25.5579 47.4831 25.6914L47.4806 25.6938L47.171 26.0009V22.8759V22.3759H46.671H25.707H25.207V22.8759V47.1301V47.6301H25.707H46.671H47.171V47.1301V38.7648C47.4224 38.7696 47.6734 38.7433 47.918 38.6867Z" stroke="white" stroke-opacity="0.2"/>
<mask id="path-6-inside-1_1_1078" fill="white">
<path d="M52.0048 29.7129L51.5621 29.2768C51.788 28.9821 51.9024 28.619 51.8854 28.2501C51.8684 27.8812 51.7211 27.5297 51.4689 27.2564C51.1412 26.9719 50.7127 26.8265 50.2767 26.8518C49.8406 26.8771 49.4324 27.0711 49.1408 27.3915L38.5375 37.8337L37.8289 40.4536C37.8177 40.4879 37.8163 40.5245 37.8249 40.5595C37.8336 40.5945 37.8519 40.6265 37.8778 40.6519C37.9038 40.6772 37.9363 40.695 37.9719 40.7033C38.0075 40.7116 38.0447 40.71 38.0795 40.6987L40.7301 39.9925L50.6283 30.2432L51.0465 30.656C51.0758 30.6847 51.0991 30.7188 51.1149 30.7563C51.1308 30.7939 51.139 30.8342 51.139 30.8749C51.139 30.9155 51.1308 30.9558 51.1149 30.9934C51.0991 31.031 51.0758 31.0651 51.0465 31.0937L46.8839 35.1937C46.7569 35.3189 46.6856 35.4886 46.6857 35.6656C46.6858 35.8425 46.7572 36.0122 46.8843 36.1372C47.0114 36.2623 47.1837 36.3325 47.3633 36.3324C47.543 36.3323 47.7152 36.262 47.8422 36.1368L52.0048 32.0368C52.1599 31.8842 52.283 31.7031 52.367 31.5036C52.4509 31.3042 52.4941 31.0904 52.4941 30.8744C52.4941 30.6585 52.4509 30.4447 52.367 30.2453C52.283 30.0458 52.1599 29.8646 52.0048 29.7121"/>
</mask>
<path d="M52.0048 29.7129L51.5621 29.2768C51.788 28.9821 51.9024 28.619 51.8854 28.2501C51.8684 27.8812 51.7211 27.5297 51.4689 27.2564C51.1412 26.9719 50.7127 26.8265 50.2767 26.8518C49.8406 26.8771 49.4324 27.0711 49.1408 27.3915L38.5375 37.8337L37.8289 40.4536C37.8177 40.4879 37.8163 40.5245 37.8249 40.5595C37.8336 40.5945 37.8519 40.6265 37.8778 40.6519C37.9038 40.6772 37.9363 40.695 37.9719 40.7033C38.0075 40.7116 38.0447 40.71 38.0795 40.6987L40.7301 39.9925L50.6283 30.2432L51.0465 30.656C51.0758 30.6847 51.0991 30.7188 51.1149 30.7563C51.1308 30.7939 51.139 30.8342 51.139 30.8749C51.139 30.9155 51.1308 30.9558 51.1149 30.9934C51.0991 31.031 51.0758 31.0651 51.0465 31.0937L46.8839 35.1937C46.7569 35.3189 46.6856 35.4886 46.6857 35.6656C46.6858 35.8425 46.7572 36.0122 46.8843 36.1372C47.0114 36.2623 47.1837 36.3325 47.3633 36.3324C47.543 36.3323 47.7152 36.262 47.8422 36.1368L52.0048 32.0368C52.1599 31.8842 52.283 31.7031 52.367 31.5036C52.4509 31.3042 52.4941 31.0904 52.4941 30.8744C52.4941 30.6585 52.4509 30.4447 52.367 30.2453C52.283 30.0458 52.1599 29.8646 52.0048 29.7121" fill="white"/>
<path d="M51.5621 29.2768L50.7685 28.6683L50.2309 29.3693L50.8603 29.9893L51.5621 29.2768ZM51.4689 27.2564L52.2039 26.5783L52.1663 26.5376L52.1245 26.5013L51.4689 27.2564ZM49.1408 27.3915L49.8425 28.104L49.8621 28.0848L49.8805 28.0645L49.1408 27.3915ZM38.5375 37.8337L37.8358 37.1212L37.6429 37.3112L37.5722 37.5726L38.5375 37.8337ZM37.8289 40.4536L38.7793 40.7645L38.7874 40.7398L38.7942 40.7147L37.8289 40.4536ZM38.0795 40.6987L37.822 39.7324L37.7961 39.7393L37.7706 39.7476L38.0795 40.6987ZM40.7301 39.9925L40.9876 40.9587L41.2433 40.8906L41.4318 40.7049L40.7301 39.9925ZM50.6283 30.2432L51.3307 29.5315L50.629 28.8389L49.9266 29.5308L50.6283 30.2432ZM51.0465 30.656L50.344 31.3677L50.3471 31.3708L51.0465 30.656ZM51.139 30.8749H50.139H51.139ZM51.0465 31.0937L50.3471 30.379L50.3448 30.3813L51.0465 31.0937ZM46.8839 35.1937L46.1821 34.4813L46.1818 34.4816L46.8839 35.1937ZM47.8422 36.1368L47.1405 35.4243L47.1402 35.4247L47.8422 36.1368ZM52.0048 32.0368L51.3036 31.3239L51.3031 31.3244L52.0048 32.0368ZM52.7065 29.0005L52.2638 28.5644L50.8603 29.9893L51.3031 30.4254L52.7065 29.0005ZM52.3556 29.8853C52.7242 29.4047 52.9123 28.81 52.8843 28.204L50.8865 28.2961C50.8925 28.428 50.8519 28.5596 50.7685 28.6683L52.3556 29.8853ZM52.8843 28.204C52.8564 27.5982 52.6145 27.0233 52.2039 26.5783L50.734 27.9345C50.8277 28.0361 50.8804 28.1642 50.8865 28.2961L52.8843 28.204ZM52.1245 26.5013C51.5984 26.0445 50.9133 25.8132 50.2187 25.8535L50.3346 27.8501C50.5121 27.8398 50.6841 27.8994 50.8134 28.0116L52.1245 26.5013ZM50.2187 25.8535C49.5241 25.8938 48.8703 26.2029 48.4012 26.7185L49.8805 28.0645C49.9944 27.9393 50.1571 27.8604 50.3346 27.8501L50.2187 25.8535ZM48.4392 26.679L37.8358 37.1212L39.2391 38.5462L49.8425 28.104L48.4392 26.679ZM37.5722 37.5726L36.8636 40.1925L38.7942 40.7147L39.5028 38.0947L37.5722 37.5726ZM36.8785 40.1426C36.809 40.3548 36.8005 40.5823 36.8541 40.7992L38.7958 40.3198C38.8321 40.4668 38.8263 40.6209 38.7793 40.7645L36.8785 40.1426ZM36.8541 40.7992C36.9076 41.016 37.0206 41.2122 37.1785 41.3667L38.5771 39.937C38.6832 40.0408 38.7595 40.173 38.7958 40.3198L36.8541 40.7992ZM37.1785 41.3667C37.3363 41.521 37.5328 41.6279 37.7455 41.6774L38.1983 39.7293C38.3399 39.7622 38.4712 39.8334 38.5771 39.937L37.1785 41.3667ZM37.7455 41.6774C37.9582 41.7268 38.1805 41.7173 38.3884 41.6498L37.7706 39.7476C37.909 39.7027 38.0568 39.6964 38.1983 39.7293L37.7455 41.6774ZM38.3369 41.665L40.9876 40.9587L40.4726 39.0262L37.822 39.7324L38.3369 41.665ZM41.4318 40.7049L51.33 30.9557L49.9266 29.5308L40.0284 39.28L41.4318 40.7049ZM49.9258 30.955L50.344 31.3677L51.7489 29.9442L51.3307 29.5315L49.9258 30.955ZM50.3471 31.3708C50.2822 31.3072 50.2298 31.2308 50.1938 31.1455L52.0361 30.3671C51.9683 30.2067 51.8694 30.0621 51.7458 29.9412L50.3471 31.3708ZM50.1938 31.1455C50.1577 31.0602 50.139 30.9682 50.139 30.8749H52.139C52.139 30.7002 52.1039 30.5276 52.0361 30.3671L50.1938 31.1455ZM50.139 30.8749C50.139 30.7815 50.1577 30.6895 50.1938 30.6042L52.0361 31.3826C52.1039 31.2222 52.139 31.0496 52.139 30.8749H50.139ZM50.1938 30.6042C50.2298 30.5189 50.2822 30.4425 50.3471 30.379L51.7458 31.8085C51.8694 31.6876 51.9683 31.543 52.0361 31.3826L50.1938 30.6042ZM50.3448 30.3813L46.1821 34.4813L47.5856 35.9062L51.7482 31.8062L50.3448 30.3813ZM46.1818 34.4816C45.8658 34.7932 45.6855 35.2189 45.6857 35.666L47.6857 35.6651C47.6857 35.7583 47.648 35.8446 47.5859 35.9059L46.1818 34.4816ZM45.6857 35.666C45.6859 36.1131 45.8665 36.5387 46.1829 36.85L47.5857 35.4245C47.6479 35.4856 47.6857 35.5719 47.6857 35.6651L45.6857 35.666ZM46.1829 36.85C46.4987 37.1608 46.9238 37.3326 47.3638 37.3324L47.3629 35.3324C47.4436 35.3324 47.524 35.3638 47.5857 35.4245L46.1829 36.85ZM47.3638 37.3324C47.8038 37.3322 48.2287 37.16 48.5442 36.8489L47.1402 35.4247C47.2018 35.3639 47.2822 35.3324 47.3629 35.3324L47.3638 37.3324ZM48.5439 36.8492L52.7065 32.7493L51.3031 31.3244L47.1405 35.4243L48.5439 36.8492ZM52.706 32.7498C52.9549 32.505 53.1531 32.2135 53.2886 31.8916L51.4453 31.1156C51.4129 31.1926 51.365 31.2635 51.3036 31.3239L52.706 32.7498ZM53.2886 31.8916C53.4242 31.5696 53.4941 31.2239 53.4941 30.8744H51.4941C51.4941 30.9568 51.4777 31.0387 51.4453 31.1156L53.2886 31.8916ZM53.4941 30.8744C53.4941 30.525 53.4242 30.1793 53.2886 29.8573L51.4453 30.6333C51.4777 30.7102 51.4941 30.7921 51.4941 30.8744H53.4941ZM53.2886 29.8573C53.1531 29.5353 52.9549 29.2439 52.706 28.9991L51.3036 30.425C51.365 30.4854 51.4129 30.5563 51.4453 30.6333L53.2886 29.8573Z" fill="white" fill-opacity="0.2" mask="url(#path-6-inside-1_1_1078)"/>
<defs>
<linearGradient id="paint0_linear_1_1078" x1="-181.114" y1="35.5" x2="254.193" y2="35.5" gradientUnits="userSpaceOnUse">
<stop offset="0.41695" stop-color="#1C7660"/>
<stop offset="0.59" stop-color="#37C5A3"/>
</linearGradient>
</defs>
</svg>
