<svg width="73" height="73" viewBox="0 0 73 73" fill="none" xmlns="http://www.w3.org/2000/svg">
<circle cx="36.7485" cy="36.5" r="35.5" fill="url(#paint0_linear_1_1088)" stroke="white" stroke-opacity="0.2"/>
<path fill-rule="evenodd" clip-rule="evenodd" d="M41.2252 36.5526C40.9954 35.9024 40.5696 35.3395 40.0066 34.9414C39.4435 34.5432 38.7708 34.3295 38.0812 34.3296V33.4961H36.4142V34.3296C35.5299 34.3296 34.6819 34.6809 34.0566 35.3061C33.4313 35.9314 33.0801 36.7794 33.0801 37.6637C33.0801 38.5479 33.4313 39.396 34.0566 40.0212C34.6819 40.6465 35.5299 40.9978 36.4142 40.9978V44.3318C35.689 44.3318 35.0714 43.8692 34.8413 43.2208C34.8072 43.1147 34.7521 43.0165 34.6794 42.9321C34.6066 42.8476 34.5177 42.7786 34.4178 42.7291C34.318 42.6797 34.2092 42.6507 34.098 42.644C33.9867 42.6373 33.8752 42.653 33.7702 42.6901C33.6651 42.7272 33.5685 42.7851 33.4862 42.8602C33.4038 42.9353 33.3374 43.0261 33.2907 43.1274C33.2441 43.2286 33.2183 43.3381 33.2147 43.4495C33.2112 43.5609 33.23 43.6719 33.2701 43.7759C33.4999 44.4261 33.9257 44.989 34.4888 45.3871C35.0519 45.7853 35.7245 45.999 36.4142 45.9989V46.8324H38.0812V45.9989C38.9654 45.9989 39.8135 45.6476 40.4387 45.0224C41.064 44.3971 41.4153 43.5491 41.4153 42.6648C41.4153 41.7806 41.064 40.9325 40.4387 40.3073C39.8135 39.682 38.9654 39.3307 38.0812 39.3307V35.9967C38.4259 35.9966 38.7622 36.1034 39.0438 36.3024C39.3253 36.5013 39.5382 36.7827 39.6532 37.1077C39.7268 37.3162 39.8802 37.4869 40.0797 37.5822C40.1785 37.6294 40.2855 37.6567 40.3949 37.6626C40.5042 37.6684 40.6136 37.6526 40.7168 37.6162C40.82 37.5797 40.915 37.5233 40.9964 37.4501C41.0779 37.377 41.1441 37.2885 41.1913 37.1897C41.2385 37.0909 41.2658 36.9838 41.2716 36.8745C41.2774 36.7652 41.2617 36.6558 41.2252 36.5526ZM36.4142 35.9967C35.972 35.9967 35.548 36.1723 35.2354 36.4849C34.9228 36.7975 34.7471 37.2216 34.7471 37.6637C34.7471 38.1058 34.9228 38.5298 35.2354 38.8425C35.548 39.1551 35.972 39.3307 36.4142 39.3307V35.9967ZM38.0812 44.3318C38.5233 44.3318 38.9473 44.1562 39.26 43.8436C39.5726 43.5309 39.7482 43.1069 39.7482 42.6648C39.7482 42.2227 39.5726 41.7987 39.26 41.486C38.9473 41.1734 38.5233 40.9978 38.0812 40.9978V44.3318Z" fill="white"/>
<path fill-rule="evenodd" clip-rule="evenodd" d="M27.2572 22.33C29.4654 21.2623 33.0883 20 37.0531 20C40.9351 20 44.4625 21.2099 46.6591 22.2633L46.7832 22.3229C47.4455 22.6464 47.9801 22.9522 48.3562 23.2003L45.0321 28.0007C52.6953 35.74 58.6146 52 37.0531 52C15.4915 52 21.2515 36.0351 28.9813 28.0007L25.6788 23.2003C25.9335 23.0358 26.2565 22.8447 26.6417 22.642C26.8324 22.5407 27.0376 22.4361 27.2572 22.33ZM42.8959 27.9376L45.5567 24.0946C43.0821 24.2706 40.1378 24.8448 37.3032 25.6556C35.2785 26.2334 33.0289 26.1454 30.9457 25.7658C30.4207 25.6698 29.8994 25.5553 29.3827 25.4227L31.1104 27.9358C34.8133 29.2381 39.192 29.2381 42.8959 27.9376ZM30.071 29.4497C34.4039 31.1031 39.6114 31.1031 43.9442 29.4479C45.7523 31.3317 47.2652 33.472 48.4327 35.7978C49.6493 38.2495 50.3116 40.7004 50.2036 42.8126C50.0992 44.851 49.2876 46.5924 47.4338 47.8868C45.5018 49.2353 42.2525 50.2221 37.0522 50.2221C31.8465 50.2221 28.5818 49.2522 26.6318 47.9188C24.7646 46.6413 23.9448 44.923 23.8287 42.9121C23.7072 40.8231 24.3551 38.3846 25.5672 35.916C26.7236 33.562 28.337 31.2961 30.071 29.4497ZM29.0362 23.4812C29.7561 23.6928 30.5084 23.8768 31.2715 24.0163C33.2062 24.3684 35.1463 24.4199 36.802 23.9461C38.7314 23.3906 40.6939 22.9539 42.6781 22.6384C41.0223 22.146 39.0858 21.7779 37.0522 21.7779C33.9521 21.7779 31.0609 22.6322 29.0362 23.4812Z" fill="white"/>
<defs>
<linearGradient id="paint0_linear_1_1088" x1="-180.592" y1="36.5" x2="254.714" y2="36.5" gradientUnits="userSpaceOnUse">
<stop offset="0.41695" stop-color="#1C7660"/>
<stop offset="0.59" stop-color="#37C5A3"/>
</linearGradient>
</defs>
</svg>
