<svg width="72" height="71" viewBox="0 0 72 71" fill="none" xmlns="http://www.w3.org/2000/svg">
<circle cx="35.6431" cy="35.5" r="35.5" fill="url(#paint0_linear_1_1098)"/>
<path d="M29.5352 43.5H31.6602V49.875H29.5352V43.5Z" fill="white"/>
<path d="M41.2227 39.25H26.3477C25.5025 39.2492 24.6923 38.9131 24.0947 38.3155C23.4971 37.7179 23.161 36.9076 23.1602 36.0625V24.375H21.0352V36.0625C21.0368 37.4709 21.5971 38.8212 22.593 39.8171C23.5889 40.8131 24.9392 41.3733 26.3477 41.375H41.2227C41.9969 41.3769 42.761 41.5515 43.4592 41.8861L36.9727 48.3726L38.475 49.875L45.1762 43.1738C46.0467 44.1376 46.5306 45.3888 46.5352 46.6875V49.875H48.6602V46.6875C48.6573 44.7158 47.8729 42.8257 46.4787 41.4315C45.0845 40.0373 43.1943 39.2528 41.2227 39.25Z" fill="white"/>
<path d="M45.7645 22.291L38.327 20.166C38.136 20.1113 37.9336 20.1113 37.7426 20.166L30.3051 22.291C30.0404 22.3668 29.8154 22.5424 29.6777 22.7809C29.5399 23.0193 29.5001 23.3019 29.5666 23.5692L30.5973 27.6927V29.687C30.5973 30.6637 30.7897 31.6309 31.1634 32.5332C31.5372 33.4356 32.085 34.2555 32.7757 34.9461C33.4663 35.6368 34.2862 36.1846 35.1886 36.5584C36.0909 36.9322 37.0581 37.1245 38.0348 37.1245C39.0115 37.1245 39.9786 36.9322 40.881 36.5584C41.7833 36.1846 42.6032 35.6368 43.2939 34.9461C43.9845 34.2555 44.5324 33.4356 44.9061 32.5332C45.2799 31.6309 45.4723 30.6637 45.4723 29.687V27.6927L46.5029 23.5702C46.5698 23.3029 46.5301 23.02 46.3923 22.7813C46.2546 22.5426 46.0294 22.3668 45.7645 22.291ZM38.0348 22.292L44.192 24.0515L43.581 26.4995H39.0973V24.3745H36.9723V26.4995H32.4896L31.8776 24.0515L38.0348 22.292ZM38.0348 34.9995C36.6263 34.9978 35.2761 34.4376 34.2801 33.4417C33.2842 32.4457 32.724 31.0955 32.7223 29.687V28.6245H43.3473V29.687C43.3456 31.0955 42.7853 32.4457 41.7894 33.4417C40.7935 34.4376 39.4432 34.9978 38.0348 34.9995Z" fill="white"/>
<defs>
<linearGradient id="paint0_linear_1_1098" x1="-181.698" y1="35.5" x2="253.609" y2="35.5" gradientUnits="userSpaceOnUse">
<stop offset="0.41695" stop-color="#1C7660"/>
<stop offset="0.59" stop-color="#37C5A3"/>
</linearGradient>
</defs>
</svg>
