<svg width="73" height="73" viewBox="0 0 73 73" fill="none" xmlns="http://www.w3.org/2000/svg">
<circle cx="36.7329" cy="36.5" r="35.5" fill="url(#paint0_linear_1_1108)" stroke="white" stroke-opacity="0.2"/>
<path d="M33.8128 32.8L29.688 29.5248C29.208 29.1216 28.968 28.9216 29.024 28.7136C29.0784 28.5056 29.3872 28.4512 30.0032 28.3456L31.88 28.016C32.5952 27.8912 32.6848 27.7072 32.3664 27.056L30.376 22.992C29.9824 22.1856 29.784 21.7824 29.9648 21.6128C30.1456 21.4416 30.5328 21.664 31.3088 22.1088L34.6544 24.032C35.2304 24.3632 35.288 24.3472 35.5856 23.7488L36.936 21.0336C37.288 20.3264 37.464 19.9728 37.6976 20.0016C37.9328 20.0304 38.0176 20.4176 38.1888 21.1888L39.2768 26.1168C39.4208 26.7632 39.5872 26.8528 40.1952 26.5904L43.8256 25.0256C44.4576 24.7536 44.7728 24.6176 44.9328 24.7744C45.0928 24.9312 44.9648 25.2528 44.7088 25.8944L41.8096 32.8M37.7904 32.8L36.9904 30.4M21 37.6H28.592C29.8208 38.4016 30.8512 38.512 32.16 39.1776C33.784 40.128 34.5568 41.6 34.5488 44C34.5488 45.6 34.7568 47.232 34.2512 48.112C33.672 49.12 30.1152 48.7968 29.7952 48.7968C29.7952 50.56 28.5056 52 26.5952 52C24.8416 52 23.4096 50.56 23.4096 48.7968M28.592 37.5984C26.9536 36.5296 26.056 34.5392 25.0512 32.9264C23.656 30.5264 21.7456 29.7584 21.0192 29.6064M23.4096 48.7968C23.4104 47.9514 23.7458 47.1407 24.3423 46.5418C24.9389 45.9428 25.7482 45.6042 26.5936 45.6C28.504 45.6 29.7936 47.12 29.7936 48.7968M23.4096 48.7968H21M45.4096 37.5952H53M45.4096 37.5952C44.1792 38.3984 43.1504 38.5072 41.8416 39.1744C40.216 40.1248 39.4448 41.5968 39.4512 43.9984C39.4512 45.5984 39.2432 47.2304 39.7504 48.1104C40.3296 49.1184 43.8864 48.7952 44.2064 48.7952M45.4096 37.5952C47.0464 36.5248 47.9456 34.5344 48.9488 32.9232C50.344 30.5232 52.256 29.7536 52.9808 29.6M44.2064 48.7952C44.2064 50.56 45.496 52 47.4064 52C49.1584 52 50.5904 50.56 50.5904 48.7952M44.2064 48.7952C44.2064 47.1184 45.496 45.5984 47.4064 45.5984C48.2518 45.6026 49.0611 45.9412 49.6577 46.5402C50.2542 47.1391 50.5896 47.9498 50.5904 48.7952M50.5904 48.7952H53" stroke="white" stroke-width="1.5" stroke-linecap="round" stroke-linejoin="round"/>
<defs>
<linearGradient id="paint0_linear_1_1108" x1="-180.608" y1="36.5" x2="254.699" y2="36.5" gradientUnits="userSpaceOnUse">
<stop offset="0.41695" stop-color="#1C7660"/>
<stop offset="0.59" stop-color="#37C5A3"/>
</linearGradient>
</defs>
</svg>
