<svg width="72" height="71" viewBox="0 0 72 71" fill="none" xmlns="http://www.w3.org/2000/svg">
<circle cx="35.6677" cy="35.5" r="35.5" fill="url(#paint0_linear_1_1116)"/>
<path d="M23.5598 40.5C24.3192 40.5 24.9348 39.8844 24.9348 39.125C24.9348 38.3656 24.3192 37.75 23.5598 37.75C22.8004 37.75 22.1848 38.3656 22.1848 39.125C22.1848 39.8844 22.8004 40.5 23.5598 40.5Z" fill="white"/>
<path d="M35.9348 29.5C36.6942 29.5 37.3098 28.8844 37.3098 28.125C37.3098 27.3656 36.6942 26.75 35.9348 26.75C35.1754 26.75 34.5598 27.3656 34.5598 28.125C34.5598 28.8844 35.1754 29.5 35.9348 29.5Z" fill="white"/>
<path d="M48.3098 40.5C49.0692 40.5 49.6848 39.8844 49.6848 39.125C49.6848 38.3656 49.0692 37.75 48.3098 37.75C47.5504 37.75 46.9348 38.3656 46.9348 39.125C46.9348 39.8844 47.5504 40.5 48.3098 40.5Z" fill="white"/>
<path d="M27.6848 33.625C28.4442 33.625 29.0598 33.0094 29.0598 32.25C29.0598 31.4906 28.4442 30.875 27.6848 30.875C26.9254 30.875 26.3098 31.4906 26.3098 32.25C26.3098 33.0094 26.9254 33.625 27.6848 33.625Z" fill="white"/>
<path d="M55.1848 40.5H52.4348C52.4348 38.7647 52.1667 37.057 51.6387 35.4221L54.2567 34.5765C54.8727 36.485 55.1848 38.4788 55.1848 40.5ZM54.9786 25.3447L51.6291 28.6942C51.1135 29.21 50.4141 29.4998 49.6848 29.5C49.1416 29.4986 48.6109 29.3365 48.1596 29.0341C47.7084 28.7317 47.3566 28.3025 47.1488 27.8006C46.9409 27.2987 46.8862 26.7466 46.9915 26.2136C47.0968 25.6807 47.3574 25.1909 47.7406 24.8058L51.0914 21.4549C50.6334 21.326 50.1606 21.2572 49.6848 21.25C46.6516 21.25 44.1848 23.7181 44.1848 26.75C44.1848 27.7675 44.4804 28.7094 44.9644 29.5275L38.7109 35.781C37.8723 35.2755 36.9126 35.0061 35.9334 35.0014C32.9016 35.0014 30.4334 37.4681 30.4334 40.5014C30.4334 43.5346 32.9016 46.0014 35.9334 46.0014C38.9653 46.0014 41.4334 43.5332 41.4334 40.5014C41.4334 39.4839 41.1392 38.5434 40.6552 37.7239L46.9087 31.4718C47.7469 31.977 48.7061 32.2464 49.6848 32.2514C52.7181 32.2514 55.1848 29.7833 55.1848 26.7514C55.1772 26.2756 55.1079 25.8027 54.9786 25.3447ZM35.9348 43.25C34.4182 43.25 33.1848 42.0166 33.1848 40.5C33.1848 38.9834 34.4182 37.75 35.9348 37.75C37.4514 37.75 38.6848 38.9848 38.6848 40.5C38.6848 42.0152 37.4514 43.25 35.9348 43.25ZM19.4348 40.5H16.6848C16.6848 29.885 25.3198 21.25 35.9348 21.25C37.9561 21.25 39.9498 21.5621 41.8569 22.1781L41.0127 24.7961C39.372 24.2671 37.6586 23.9985 35.9348 24C26.8364 24 19.4348 31.4016 19.4348 40.5Z" fill="white"/>
<defs>
<linearGradient id="paint0_linear_1_1116" x1="-181.673" y1="35.5" x2="253.634" y2="35.5" gradientUnits="userSpaceOnUse">
<stop offset="0.41695" stop-color="#1C7660"/>
<stop offset="0.59" stop-color="#37C5A3"/>
</linearGradient>
</defs>
</svg>
