<svg width="39" height="38" viewBox="0 0 39 38" fill="none" xmlns="http://www.w3.org/2000/svg">
<path fill-rule="evenodd" clip-rule="evenodd" d="M5.69615 18.9992C5.69615 15.2063 7.20287 11.5688 9.88484 8.88679C12.5668 6.20482 16.2043 4.69811 19.9972 4.69811C23.7901 4.69811 27.4276 6.20482 30.1096 8.88679C32.7916 11.5688 34.2983 15.2063 34.2983 18.9992C34.2983 22.7921 32.7916 26.4296 30.1096 29.1116C27.4276 31.7935 23.7901 33.3003 19.9972 33.3003C16.2043 33.3003 12.5668 31.7935 9.88484 29.1116C7.20287 26.4296 5.69615 22.7921 5.69615 18.9992ZM19.9972 1.83789C17.7436 1.83789 15.512 2.28178 13.4299 3.14422C11.3478 4.00665 9.45594 5.27074 7.86236 6.86432C6.26879 8.45789 5.0047 10.3497 4.14226 12.4318C3.27983 14.5139 2.83594 16.7455 2.83594 18.9992C2.83594 21.2528 3.27983 23.4844 4.14226 25.5665C5.0047 27.6486 6.26879 29.5405 7.86236 31.134C9.45594 32.7276 11.3478 33.9917 13.4299 34.8541C15.512 35.7166 17.7436 36.1605 19.9972 36.1605C24.5487 36.1605 28.9137 34.3524 32.1321 31.134C35.3505 27.9157 37.1585 23.5506 37.1585 18.9992C37.1585 14.4477 35.3505 10.0827 32.1321 6.86432C28.9137 3.64595 24.5487 1.83789 19.9972 1.83789ZM14.7535 16.139C15.3856 16.139 15.9919 15.8878 16.4389 15.4409C16.8859 14.9939 17.137 14.3876 17.137 13.7555C17.137 13.1233 16.8859 12.5171 16.4389 12.0701C15.9919 11.6231 15.3856 11.3719 14.7535 11.3719C14.1214 11.3719 13.5151 11.6231 13.0681 12.0701C12.6211 12.5171 12.37 13.1233 12.37 13.7555C12.37 14.3876 12.6211 14.9939 13.0681 15.4409C13.5151 15.8878 14.1214 16.139 14.7535 16.139ZM27.6245 13.7555C27.6245 14.3876 27.3733 14.9939 26.9264 15.4409C26.4794 15.8878 25.8731 16.139 25.241 16.139C24.6088 16.139 24.0026 15.8878 23.5556 15.4409C23.1086 14.9939 22.8574 14.3876 22.8574 13.7555C22.8574 13.1233 23.1086 12.5171 23.5556 12.0701C24.0026 11.6231 24.6088 11.3719 25.241 11.3719C25.8731 11.3719 26.4794 11.6231 26.9264 12.0701C27.3733 12.5171 27.6245 13.1233 27.6245 13.7555ZM13.7048 22.2903L13.6971 22.2751C13.5489 21.9329 13.273 21.6622 12.9281 21.5206C12.5832 21.3789 12.1966 21.3776 11.8507 21.5168C11.5049 21.6561 11.227 21.9249 11.0765 22.266C10.9259 22.6071 10.9145 22.9935 11.0448 23.3429L12.37 22.8128C11.0428 23.3429 11.0428 23.3467 11.0428 23.3467L11.0448 23.3505L11.0486 23.3581L11.0562 23.3791C11.0929 23.4683 11.133 23.5561 11.1763 23.6423C11.6545 24.5889 12.2786 25.4544 13.0259 26.2069C14.437 27.6161 16.6908 29.0099 19.9972 29.0099C23.3036 29.0099 25.5594 27.6161 26.9666 26.2069C27.542 25.6332 28.0448 24.9908 28.4635 24.2944C28.6381 23.9981 28.7966 23.6926 28.9383 23.3791L28.9459 23.3581L28.9497 23.3505V23.3467C28.9497 23.3467 28.9516 23.3429 27.6245 22.8128L28.9516 23.3429C29.0742 22.9954 29.058 22.614 28.9063 22.2783C28.7546 21.9425 28.4792 21.6782 28.1374 21.5405C27.7957 21.4028 27.4139 21.4023 27.0718 21.5392C26.7297 21.676 26.4536 21.9397 26.3011 22.2751L26.2935 22.2903L26.2458 22.3933C25.9068 23.0539 25.4682 23.6584 24.9454 24.1857C23.9691 25.1601 22.4093 26.1497 19.9972 26.1497C17.5851 26.1497 16.0253 25.1601 15.0491 24.1857C14.527 23.6583 14.089 23.0537 13.7505 22.3933L13.7048 22.2903Z" fill="url(#paint0_linear_1_667)"/>
<defs>
<linearGradient id="paint0_linear_1_667" x1="-85.0689" y1="18.9992" x2="125.366" y2="18.9992" gradientUnits="userSpaceOnUse">
<stop offset="0.362456" stop-color="#058C6B"/>
<stop offset="0.597785" stop-color="#41E4BD"/>
</linearGradient>
</defs>
</svg>
