<svg width="39" height="38" viewBox="0 0 39 38" fill="none" xmlns="http://www.w3.org/2000/svg">
<path fill-rule="evenodd" clip-rule="evenodd" d="M5.70397 18.9972C5.70397 15.2043 7.21068 11.5668 9.89265 8.88484C12.5746 6.20287 16.2122 4.69615 20.005 4.69615C23.7979 4.69615 27.4355 6.20287 30.1174 8.88484C32.7994 11.5668 34.3061 15.2043 34.3061 18.9972C34.3061 22.7901 32.7994 26.4276 30.1174 29.1096C27.4355 31.7916 23.7979 33.2983 20.005 33.2983C16.2122 33.2983 12.5746 31.7916 9.89265 29.1096C7.21068 26.4276 5.70397 22.7901 5.70397 18.9972ZM20.005 1.83594C17.7514 1.83594 15.5198 2.27983 13.4377 3.14226C11.3556 4.0047 9.46375 5.26879 7.87018 6.86236C6.2766 8.45594 5.01251 10.3478 4.15008 12.4299C3.28764 14.512 2.84375 16.7436 2.84375 18.9972C2.84375 21.2509 3.28764 23.4825 4.15008 25.5646C5.01251 27.6467 6.2766 29.5385 7.87018 31.1321C9.46375 32.7257 11.3556 33.9898 13.4377 34.8522C15.5198 35.7146 17.7514 36.1585 20.005 36.1585C24.5565 36.1585 28.9215 34.3505 32.1399 31.1321C35.3583 27.9137 37.1663 23.5487 37.1663 18.9972C37.1663 14.4458 35.3583 10.0807 32.1399 6.86236C28.9215 3.644 24.5565 1.83594 20.005 1.83594ZM14.7613 16.137C15.3935 16.137 15.9997 15.8859 16.4467 15.4389C16.8937 14.9919 17.1448 14.3856 17.1448 13.7535C17.1448 13.1214 16.8937 12.5151 16.4467 12.0681C15.9997 11.6211 15.3935 11.37 14.7613 11.37C14.1292 11.37 13.5229 11.6211 13.0759 12.0681C12.6289 12.5151 12.3778 13.1214 12.3778 13.7535C12.3778 14.3856 12.6289 14.9919 13.0759 15.4389C13.5229 15.8859 14.1292 16.137 14.7613 16.137ZM27.6323 13.7535C27.6323 14.3856 27.3812 14.9919 26.9342 15.4389C26.4872 15.8859 25.8809 16.137 25.2488 16.137C24.6166 16.137 24.0104 15.8859 23.5634 15.4389C23.1164 14.9919 22.8653 14.3856 22.8653 13.7535C22.8653 13.1214 23.1164 12.5151 23.5634 12.0681C24.0104 11.6211 24.6166 11.37 25.2488 11.37C25.8809 11.37 26.4872 11.6211 26.9342 12.0681C27.3812 12.5151 27.6323 13.1214 27.6323 13.7535ZM13.7126 22.2884L13.7049 22.2731C13.5568 21.931 13.2808 21.6602 12.9359 21.5186C12.591 21.377 12.2044 21.3756 11.8585 21.5149C11.5127 21.6541 11.2348 21.9229 11.0843 22.264C10.9337 22.6051 10.9224 22.9916 11.0526 23.3409L12.3778 22.8108C11.0507 23.3409 11.0507 23.3448 11.0507 23.3448L11.0526 23.3486L11.0564 23.3562L11.064 23.3772C11.1007 23.4664 11.1408 23.5541 11.1841 23.6403C11.6623 24.587 12.2865 25.4524 13.0337 26.205C14.4448 27.6141 16.6986 29.008 20.005 29.008C23.3114 29.008 25.5672 27.6141 26.9744 26.205C27.5499 25.6312 28.0526 24.9889 28.4713 24.2924C28.6459 23.9961 28.8044 23.6906 28.9461 23.3772L28.9537 23.3562L28.9575 23.3486V23.3448C28.9575 23.3448 28.9594 23.3409 27.6323 22.8108L28.9594 23.3409C29.082 22.9935 29.0658 22.6121 28.9141 22.2763C28.7624 21.9405 28.487 21.6762 28.1452 21.5385C27.8035 21.4008 27.4217 21.4004 27.0796 21.5372C26.7375 21.6741 26.4615 21.9377 26.309 22.2731L26.3013 22.2884L26.2537 22.3913C25.9146 23.0519 25.476 23.6564 24.9532 24.1838C23.9769 25.1581 22.4172 26.1478 20.005 26.1478C17.5929 26.1478 16.0332 25.1581 15.0569 24.1838C14.5348 23.6563 14.0968 23.0518 13.7583 22.3913L13.7126 22.2884Z" fill="#CC6E00"/>
</svg>
