<svg width="71" height="71" viewBox="0 0 71 71" fill="none" xmlns="http://www.w3.org/2000/svg">
<circle cx="35.5" cy="35.5" r="35.5" fill="url(#paint0_linear_1_613)"/>
<path d="M40.6196 38.8817C40.6196 37.6563 37.0003 36.6637 32.5356 36.6637M40.6196 38.8817C40.6196 40.1072 37.0003 41.0998 32.5356 41.0998C28.071 41.0998 24.4517 40.1072 24.4517 38.8817M40.6196 38.8817V44.3569C40.6196 45.6201 37.0003 46.6448 32.5356 46.6448C28.071 46.6448 24.4517 45.6212 24.4517 44.3569V38.8817M40.6196 38.8817C45.0357 38.8817 48.7035 37.7871 48.7035 36.6637V25.5735M32.5356 36.6637C28.071 36.6637 24.4517 37.6563 24.4517 38.8817M32.5356 36.6637C27.4335 36.6637 23.2969 35.5691 23.2969 34.4457V28.9006M32.5356 26.6825C27.4335 26.6825 23.2969 27.6751 23.2969 28.9006M23.2969 28.9006C23.2969 30.126 27.4335 31.1186 32.5356 31.1186C32.5356 32.242 36.2923 33.3366 40.7085 33.3366C45.1246 33.3366 48.7035 32.242 48.7035 31.1186M48.7035 25.5735C48.7035 24.348 45.1234 23.3555 40.7085 23.3555C36.2935 23.3555 32.7135 24.348 32.7135 25.5735M48.7035 25.5735C48.7035 26.799 45.1234 27.7915 40.7085 27.7915C36.2935 27.7915 32.7135 26.799 32.7135 25.5735M32.7135 25.5735V36.8478" stroke="white" stroke-width="1.5"/>
<defs>
<linearGradient id="paint0_linear_1_613" x1="-181.841" y1="35.5" x2="253.466" y2="35.5" gradientUnits="userSpaceOnUse">
<stop offset="0.41695" stop-color="#1C7660"/>
<stop offset="0.59" stop-color="#37C5A3"/>
</linearGradient>
</defs>
</svg>
