<svg width="71" height="71" viewBox="0 0 71 71" fill="none" xmlns="http://www.w3.org/2000/svg">
<circle cx="35.5" cy="35.5" r="35.5" fill="url(#paint0_linear_1_602)"/>
<path d="M28.9219 33.7227H31.7552V36.2727H28.9219V33.7227ZM28.9219 38.8227H31.7552V41.3727H28.9219V38.8227ZM34.5885 33.7227H37.4219V36.2727H34.5885V33.7227ZM34.5885 38.8227H37.4219V41.3727H34.5885V38.8227ZM40.2552 33.7227H43.0885V36.2727H40.2552V33.7227ZM40.2552 38.8227H43.0885V41.3727H40.2552V38.8227Z" fill="white"/>
<path d="M26.0833 47.75H45.9167C47.4792 47.75 48.75 46.6063 48.75 45.2V27.35C48.75 25.9437 47.4792 24.8 45.9167 24.8H43.0833V22.25H40.25V24.8H31.75V22.25H28.9167V24.8H26.0833C24.5207 24.8 23.25 25.9437 23.25 27.35V45.2C23.25 46.6063 24.5207 47.75 26.0833 47.75ZM47 27V45.2H25V27H36H47Z" fill="white"/>
<defs>
<linearGradient id="paint0_linear_1_602" x1="-181.841" y1="35.5" x2="253.466" y2="35.5" gradientUnits="userSpaceOnUse">
<stop offset="0.41695" stop-color="#1C7660"/>
<stop offset="0.59" stop-color="#37C5A3"/>
</linearGradient>
</defs>
</svg>
