<svg width="71" height="71" viewBox="0 0 71 71" fill="none" xmlns="http://www.w3.org/2000/svg">
<circle cx="35.5" cy="35.5" r="35.5" fill="url(#paint0_linear_1_579)"/>
<path d="M31.3053 42.7154C31.3053 43.5868 30.9756 44.4225 30.3888 45.0387C29.8019 45.6549 29.006 46.001 28.1761 46.001C27.3462 46.001 26.5502 45.6549 25.9634 45.0387C25.3766 44.4225 25.0469 43.5868 25.0469 42.7154C25.0469 41.844 25.3766 41.0082 25.9634 40.392C26.5502 39.7759 27.3462 39.4297 28.1761 39.4297C29.006 39.4297 29.8019 39.7759 30.3888 40.392C30.9756 41.0082 31.3053 41.844 31.3053 42.7154ZM46.9514 42.7154C46.9514 43.5868 46.6217 44.4225 46.0349 45.0387C45.448 45.6549 44.6521 46.001 43.8222 46.001C42.9923 46.001 42.1963 45.6549 41.6095 45.0387C41.0227 44.4225 40.693 43.5868 40.693 42.7154C40.693 41.844 41.0227 41.0082 41.6095 40.392C42.1963 39.7759 42.9923 39.4297 43.8222 39.4297C44.6521 39.4297 45.448 39.7759 46.0349 40.392C46.6217 41.0082 46.9514 41.844 46.9514 42.7154Z" stroke="white" stroke-width="1.5" stroke-linecap="round" stroke-linejoin="round"/>
<path d="M20.6799 31.2117H45.2101M20.6799 31.2117C20.6799 32.4928 20.6493 36.2045 20.6861 39.8505C20.7413 41.033 20.9252 42.0184 25.2824 42.7081M20.6799 31.2117C21.0111 28.354 22.4507 24.9708 23.1866 23.6898M31.4119 31.2117V23M40.5954 42.7081H31.4042M20.7029 23H36.3685C36.3685 23 37.1964 23 37.9323 23.0788C39.3106 23.2168 40.4681 23.8869 41.6272 25.5621C42.8537 27.3358 43.795 29.5825 45.0461 30.7847C47.1235 32.7818 51.0759 32.1643 51.2967 36.4015C51.3518 38.5694 51.3518 40.9344 51.2599 41.3286C51.1111 42.4897 50.2756 42.6786 49.2361 42.7081C48.3346 42.7344 47.2476 42.6622 46.7187 42.7081" stroke="white" stroke-width="1.5" stroke-linecap="round" stroke-linejoin="round"/>
<defs>
<linearGradient id="paint0_linear_1_579" x1="-181.841" y1="35.5" x2="253.466" y2="35.5" gradientUnits="userSpaceOnUse">
<stop offset="0.41695" stop-color="#1C7660"/>
<stop offset="0.59" stop-color="#37C5A3"/>
</linearGradient>
</defs>
</svg>
