<svg width="48" height="47" viewBox="0 0 48 47" fill="none" xmlns="http://www.w3.org/2000/svg">
<ellipse cx="23.7865" cy="23.5" rx="23.6605" ry="23.0003" fill="#FC3F1D"/>
<path d="M25.2381 9.50886C25.3538 9.50825 25.4695 9.50765 25.5888 9.50702C25.712 9.50691 25.8352 9.50681 25.9621 9.5067C26.0898 9.50638 26.2175 9.50606 26.349 9.50573C26.6181 9.50525 26.8871 9.50503 27.1562 9.50504C27.5694 9.50483 27.9825 9.5031 28.3957 9.50129C28.6571 9.50101 28.9185 9.50082 29.18 9.50073C29.3041 9.50005 29.4281 9.49936 29.556 9.49866C29.7275 9.4991 29.7275 9.4991 29.9025 9.49955C30.0034 9.49941 30.1043 9.49927 30.2082 9.49913C30.4506 9.52272 30.4506 9.52272 30.666 9.7135C30.6929 9.91447 30.6929 9.91447 30.6928 10.1687C30.6933 10.2654 30.6938 10.3621 30.6943 10.4617C30.6935 10.6223 30.6935 10.6223 30.6927 10.786C30.6929 10.8991 30.6932 11.0121 30.6934 11.1286C30.6939 11.4434 30.6935 11.7582 30.6926 12.073C30.6919 12.4121 30.6924 12.7512 30.6928 13.0903C30.6934 13.755 30.6927 14.4197 30.6918 15.0844C30.6906 15.8576 30.6906 16.6309 30.6907 17.4042C30.6907 18.7834 30.6898 20.1626 30.6882 21.5419C30.6867 22.8817 30.6859 24.2215 30.686 25.5613C30.686 25.6438 30.686 25.7263 30.686 25.8113C30.686 25.8937 30.686 25.9761 30.686 26.061C30.6861 27.5843 30.6855 29.1075 30.6845 30.6308C30.6842 31.1704 30.684 31.7101 30.684 32.2497C30.6839 32.9069 30.6834 33.564 30.6825 34.2211C30.682 34.5567 30.6816 34.8923 30.6818 35.2279C30.6819 35.5908 30.6812 35.9538 30.6804 36.3168C30.6806 36.424 30.6808 36.5312 30.6809 36.6417C30.6804 36.7864 30.6804 36.7864 30.6799 36.9339C30.6798 37.0178 30.6797 37.1017 30.6797 37.1882C30.666 37.3772 30.666 37.3772 30.5583 37.4726C30.3455 37.4821 30.1323 37.4851 29.9192 37.4852C29.7893 37.4854 29.6594 37.4855 29.5256 37.4856C29.3888 37.4852 29.2519 37.4849 29.111 37.4845C28.9745 37.4849 28.8381 37.4852 28.6976 37.4856C28.5676 37.4855 28.4375 37.4854 28.3036 37.4852C28.1835 37.4851 28.0635 37.485 27.9399 37.4849C27.6501 37.4726 27.6501 37.4726 27.4347 37.3772C27.4347 34.0089 27.4347 30.6406 27.4347 27.1702C26.7594 27.2017 26.084 27.2332 25.3882 27.2656C25.2033 27.5947 25.2033 27.5947 25.0146 27.9304C24.5175 28.8124 24.0071 29.6881 23.4955 30.5636C23.0371 31.3483 22.5838 32.135 22.139 32.9259C21.831 33.4729 21.5149 34.0159 21.1943 34.5572C21.1126 34.6953 21.1126 34.6953 21.0292 34.8363C20.9193 35.0221 20.8093 35.2078 20.6992 35.3934C20.5492 35.6468 20.3998 35.9005 20.2506 36.1542C20.1635 36.3015 20.0764 36.4489 19.9893 36.5962C19.9498 36.6634 19.9104 36.7307 19.8698 36.8C19.7184 37.0548 19.5878 37.2677 19.3565 37.4726C19.019 37.4973 19.019 37.4973 18.589 37.4979C18.5134 37.4981 18.4377 37.4983 18.3597 37.4985C18.1996 37.4986 18.0395 37.4982 17.8795 37.4974C17.6341 37.4964 17.3888 37.4974 17.1434 37.4987C16.988 37.4985 16.8326 37.4983 16.6772 37.4979C16.5353 37.4977 16.3934 37.4975 16.2472 37.4973C15.9098 37.4726 15.9098 37.4726 15.6943 37.2818C15.7237 36.7736 15.8877 36.4166 16.1656 35.9761C16.2034 35.9155 16.2412 35.8548 16.2801 35.7923C16.3629 35.6596 16.4462 35.5271 16.53 35.3948C16.669 35.1749 16.806 34.9541 16.9427 34.733C17.1927 34.3288 17.4438 33.925 17.6952 33.5215C17.895 33.2008 18.0943 32.8799 18.2935 32.5589C18.3921 32.4001 18.4908 32.2412 18.5894 32.0824C18.8341 31.6887 19.0784 31.2948 19.322 30.9006C19.4187 30.7442 19.5155 30.5878 19.6123 30.4314C19.66 30.3544 19.7077 30.2773 19.7568 30.1979C20.0317 29.7552 20.3104 29.3145 20.5926 28.8754C20.6557 28.7771 20.7189 28.6788 20.7839 28.5776C20.9063 28.3873 21.0291 28.1973 21.1524 28.0074C21.4495 27.5461 21.72 27.0916 21.9415 26.5979C21.8477 26.555 21.7538 26.5121 21.6571 26.4678C20.686 26.0091 19.9133 25.4776 19.1411 24.7854C19.0693 24.7228 18.9975 24.6603 18.9235 24.5958C17.1019 22.895 16.6977 20.5252 16.7445 18.2742C16.8466 15.6082 17.7731 13.1523 19.9657 11.2819C21.3949 10.1781 23.3333 9.5157 25.2381 9.50886ZM23.4495 12.3845C23.3301 12.438 23.3301 12.438 23.2084 12.4925C21.953 13.1249 21.1693 14.2335 20.7567 15.437C20.0378 17.7538 20.0402 20.2653 21.3192 22.4331C21.4458 22.6208 21.5797 22.797 21.7261 22.973C21.7734 23.0305 21.8208 23.0881 21.8696 23.1474C22.6668 24.0421 23.8303 24.5105 25.092 24.6662C25.5666 24.6989 26.0434 24.6992 26.5192 24.702C26.5967 24.7024 26.6742 24.7029 26.7541 24.7034C27.1255 24.7318 27.1255 24.7318 27.4347 24.5947C27.4453 24.4331 27.4483 24.2712 27.4484 24.1094C27.4487 24.0043 27.449 23.8991 27.4493 23.7908C27.4491 23.6745 27.4489 23.5581 27.4487 23.4382C27.4489 23.3165 27.449 23.1947 27.4492 23.0693C27.4497 22.7344 27.4495 22.3996 27.4492 22.0647C27.4489 21.7151 27.4492 21.3654 27.4493 21.0157C27.4495 20.4284 27.4493 19.841 27.4488 19.2537C27.4482 18.5737 27.4484 17.8937 27.449 17.2137C27.4495 16.6309 27.4495 16.0481 27.4492 15.4653C27.4491 15.1168 27.4491 14.7683 27.4494 14.4197C27.4498 14.0314 27.4493 13.6431 27.4487 13.2547C27.449 13.0802 27.449 13.0802 27.4493 12.9021C27.4489 12.7444 27.4489 12.7444 27.4484 12.5835C27.4484 12.4916 27.4483 12.3997 27.4483 12.3049C27.4608 12.1002 27.4608 12.1002 27.327 12.0029C26.0354 11.9077 24.6275 11.8497 23.4495 12.3845Z" fill="white"/>
</svg>
