<svg width="140" height="85" viewBox="0 0 140 85" fill="none" xmlns="http://www.w3.org/2000/svg">
<g clip-path="url(#clip0_16_1863)">
<path d="M62.3625 18.4965C62.6006 18.7146 62.8359 18.9352 63.0707 19.1569C63.2994 19.3687 63.5272 19.5688 63.7676 19.766C64.0405 19.9965 64.2668 20.2132 64.4943 20.486C64.8189 20.8696 65.1548 21.2384 65.4979 21.6053C70.9157 27.5945 73.4716 35.8445 73.107 43.8485C72.7067 50.8609 70.0709 57.6905 65.3069 62.8826C65.0802 63.1303 64.8609 63.3827 64.643 63.6382C63.8879 64.5039 63.0755 65.2722 62.1799 65.9901C61.9671 66.1613 61.7565 66.3355 61.549 66.5133C57.3331 70.1099 51.931 72.2449 46.5036 73.0625C46.411 73.0767 46.3183 73.0909 46.2229 73.1054C38.4456 74.2326 30.2082 72.0659 23.908 67.3974C23.0885 66.7794 22.3078 66.1248 21.5532 65.4281C21.3024 65.197 21.047 64.9729 20.7889 64.75C20.0194 64.0753 19.3261 63.3418 18.6702 62.5562C18.6197 62.4959 18.5693 62.4356 18.5173 62.3735C17.0553 60.6148 15.815 58.7279 14.7449 56.7061C14.7045 56.6308 14.6641 56.5555 14.6224 56.478C10.8974 49.499 10.2024 40.9217 12.4041 33.3597C13.5844 29.4553 15.4008 25.8551 17.9565 22.6798C18.0553 22.5536 18.1541 22.4274 18.2529 22.3012C19.7173 20.4885 21.4448 18.6961 23.3393 17.3371C23.569 17.172 23.7955 17.003 24.0223 16.8339C25.1186 16.0266 26.2526 15.3298 27.456 14.6954C27.6915 14.5711 27.9255 14.4442 28.1594 14.3169C37.9032 9.11992 50.6137 9.99524 62.3625 18.4965ZM32.8248 26.2616C32.8167 28.3944 32.8102 30.5272 32.8063 32.66C32.8045 33.6505 32.802 34.641 32.7979 35.6314C32.7943 36.4955 32.792 37.3596 32.7912 38.2236C32.7908 38.6805 32.7897 39.1373 32.7871 39.5941C32.7846 40.0256 32.7839 40.457 32.7844 40.8885C32.7843 41.1193 32.7824 41.35 32.7804 41.5808C32.7884 43.9028 33.464 45.7825 34.8469 47.6324C34.9306 47.7499 34.9306 47.7499 35.016 47.8698C36.4317 49.7074 38.9002 50.9197 41.151 51.2141C43.8184 51.3958 46.3239 50.8537 48.3877 49.0623C48.4725 48.9844 48.5573 48.9065 48.6447 48.8263C48.7663 48.7206 48.7663 48.7206 48.8905 48.6127C50.4708 47.1537 51.567 44.8479 51.6583 42.6959C51.706 39.7052 50.9391 37.3513 48.8468 35.1692C47.0664 33.4494 44.6407 32.5198 42.1823 32.5392C40.5766 32.5921 39.1854 33.2219 38.051 34.3652C37.9883 34.4338 37.9256 34.5024 37.861 34.5732C37.7016 34.7383 37.7016 34.7383 37.4637 34.8576C37.4048 30.6026 37.4048 30.6026 37.3448 26.2616C35.8532 26.2616 34.3616 26.2616 32.8248 26.2616ZM14.7226 35.7601C13.0268 37.9813 12.5529 40.6437 12.8756 43.3825C13.1608 45.0856 13.9548 46.5961 15.1018 47.8712C15.2025 47.9848 15.2025 47.9848 15.3053 48.1006C16.8169 49.7105 19.1674 50.9418 21.3739 51.0312C23.3754 51.0586 24.9991 50.3138 26.5095 49.0217C26.7585 48.8263 26.7585 48.8263 27.1154 48.7069C27.1154 49.4949 27.1154 50.2829 27.1154 51.0947C28.607 51.0947 30.0985 51.0947 31.6353 51.0947C31.6457 49.3135 31.6457 49.3135 31.6528 47.5324C31.6549 46.8046 31.6574 46.0768 31.6623 45.349C31.6662 44.7615 31.6683 44.1739 31.6692 43.5864C31.6698 43.3636 31.6711 43.1408 31.6731 42.918C31.6948 40.322 31.304 37.9954 29.6132 35.9322C29.5215 35.8152 29.4299 35.6982 29.3354 35.5777C29.0092 35.1872 28.639 34.8771 28.2379 34.5666C28.1649 34.5099 28.0918 34.4532 28.0165 34.3947C23.8224 31.1939 18.1916 31.6875 14.7226 35.7601ZM55.2448 35.7946C53.6205 37.8512 52.9565 40.3309 53.239 42.9314C53.5862 45.1286 54.5846 46.9242 56.1383 48.4681C56.2239 48.5566 56.3094 48.6451 56.3976 48.7363C57.5334 49.8398 59.0215 50.4804 60.5393 50.8559C60.6279 50.8787 60.7166 50.9015 60.8079 50.925C63.3274 51.314 65.784 50.7469 67.8847 49.3202C68.1409 49.124 68.3847 48.9192 68.6277 48.7069C68.7323 48.6273 68.7323 48.6273 68.8391 48.546C70.3763 47.3459 71.1836 45.5746 71.4824 43.6925C70.9004 43.6807 70.3185 43.672 69.7364 43.6663C69.5385 43.6639 69.3407 43.6606 69.1428 43.6565C68.8579 43.6507 68.573 43.648 68.288 43.6459C68.2 43.6434 68.112 43.641 68.0214 43.6384C67.583 43.6382 67.3435 43.6766 66.9729 43.9198C66.7466 44.1479 66.5623 44.367 66.3826 44.6327C65.6961 45.576 64.7938 46.2224 63.6319 46.4385C61.9638 46.5457 60.5554 46.3689 59.2309 45.2446C58.1376 44.086 57.863 42.7699 57.8895 41.2264C57.9417 40.0243 58.482 39.0806 59.3094 38.2384C60.3058 37.3249 61.4978 36.9402 62.8393 36.9778C64.0303 37.0864 65.2291 37.4543 66.0488 38.3773C66.2985 38.6881 66.5258 39.0082 66.751 39.3376C66.9342 39.6423 66.9342 39.6423 67.2003 39.7526C67.5214 39.763 67.8393 39.7664 68.1603 39.7643C68.255 39.7641 68.3497 39.764 68.4473 39.7638C68.7503 39.7631 69.0532 39.7616 69.3562 39.7601C69.5614 39.7595 69.7667 39.759 69.9719 39.7585C70.4754 39.7572 70.9789 39.7551 71.4824 39.7526C71.0469 37.3683 69.7947 35.4506 67.7949 34.0619C63.6121 31.3071 58.5386 32.0463 55.2448 35.7946Z" fill="white"/>
<path d="M41.749 0.0726045C42.1615 0.074528 42.5738 0.0726061 42.9863 0.070331C45.4805 0.0678588 47.9376 0.313151 50.3837 0.805794C50.4598 0.82091 50.5359 0.836026 50.6143 0.8516C52.1282 1.15406 53.6006 1.54791 55.0673 2.02954C55.1935 2.07008 55.3198 2.11061 55.4499 2.15237C60.4058 3.76067 65.0236 6.35977 69.005 9.72654C69.2106 9.89982 69.4181 10.0706 69.6261 10.2409C71.2421 11.5793 72.8154 13.0754 74.1006 14.7395C74.3255 15.0289 74.5616 15.3056 74.8021 15.5821C81.7719 23.6364 84.7993 34.8035 84.1274 45.316C83.3968 55.1975 79.2078 64.9383 72.0766 71.8729C71.7678 72.1808 71.4615 72.4908 71.1576 72.8037C70.3945 73.5871 69.6068 74.3009 68.7461 74.977C68.5879 75.1047 68.4298 75.2325 68.2717 75.3604C60.9108 81.2671 51.6362 84.4452 42.2285 84.4312C42.1379 84.4311 42.0474 84.4311 41.9541 84.431C40.3684 84.4276 38.8006 84.3642 37.2253 84.1701C37.1055 84.1553 36.9858 84.1405 36.8624 84.1253C32.4836 83.5615 28.2534 82.3584 24.2601 80.469C24.1523 80.4184 24.0445 80.3678 23.9335 80.3157C20.2029 78.5503 16.7886 76.2131 13.7766 73.3862C13.5452 73.1692 13.313 72.9551 13.0768 72.7436C12.2297 71.9828 11.4517 71.1763 10.7002 70.3208C10.6445 70.2582 10.5887 70.1957 10.5313 70.1312C8.17842 67.4875 6.24993 64.5121 4.63396 61.3665C4.57847 61.259 4.52299 61.1515 4.46582 61.0408C2.08014 56.3698 0.674022 51.1904 0.23294 45.9652C0.219754 45.825 0.206567 45.6848 0.192982 45.5403C-0.674293 34.6119 2.80765 23.5315 9.8676 15.1625C9.96344 15.0443 10.0593 14.9261 10.158 14.8043C10.9258 13.8679 11.7591 12.9997 12.6108 12.1404C12.7731 11.9759 12.7731 11.9759 12.9387 11.808C13.6628 11.0844 14.4223 10.4296 15.2202 9.78991C15.3438 9.68543 15.4669 9.58035 15.5891 9.47418C18.0914 7.31638 20.962 5.65275 23.9033 4.17857C23.9927 4.13321 24.0822 4.08784 24.1743 4.04111C27.2594 2.48458 30.5895 1.46989 33.9691 0.798332C34.1746 0.757081 34.1746 0.757081 34.3843 0.714998C36.8266 0.255419 39.266 0.0589087 41.749 0.0726045ZM36.0358 1.91015C35.9126 1.93064 35.7893 1.95113 35.6623 1.97224C29.8209 2.95427 24.2837 5.13103 19.3833 8.47662C19.3114 8.52565 19.2394 8.57469 19.1652 8.62521C17.4617 9.79517 15.8939 11.1224 14.3876 12.5359C14.2625 12.6495 14.1372 12.7628 14.0117 12.8759C13.4199 13.4099 12.8476 13.9448 12.3357 14.5585C12.0922 14.8461 11.8348 15.1185 11.5775 15.3938C10.7875 16.2639 10.0908 17.2031 9.39182 18.1472C9.33844 18.2185 9.28506 18.2897 9.23007 18.3632C2.95049 26.7639 0.502978 37.7666 1.92981 48.0902C2.17582 49.7545 2.53383 51.3848 2.96871 53.0092C2.99918 53.1231 3.02966 53.2371 3.06106 53.3545C3.59012 55.2911 4.31684 57.1369 5.10975 58.9787C5.17345 59.1269 5.17345 59.1269 5.23845 59.2781C7.49014 64.4466 11.2918 69.6543 15.7266 73.1638C16.0162 73.3956 16.2951 73.6362 16.5732 73.8816C18.4082 75.4873 20.4813 76.7631 22.5949 77.9618C22.7246 78.0362 22.7246 78.0362 22.857 78.1122C31.859 83.2487 43.0166 84.2479 52.9262 81.5435C55.5759 80.8112 58.1171 79.8433 60.5506 78.5579C60.7854 78.4348 61.0218 78.3152 61.2585 78.1959C64.099 76.7482 66.7378 74.8458 69.103 72.7086C69.2018 72.6195 69.2018 72.6195 69.3026 72.5286C70.5293 71.4179 71.7219 70.2744 72.7903 69.0075C72.885 68.8991 72.9798 68.7908 73.0774 68.6792C79.0367 61.8202 82.5391 52.661 82.7818 43.5774C82.7844 43.4827 82.787 43.388 82.7897 43.2904C82.9977 34.2321 80.2249 24.9394 74.6264 17.7697C74.4577 17.553 74.2914 17.3346 74.1256 17.1156C73.473 16.2597 72.7798 15.4576 72.0432 14.6737C71.7783 14.3896 71.524 14.1013 71.2737 13.8044C70.9347 13.4105 70.5636 13.0758 70.1684 12.7397C69.9475 12.5463 69.7448 12.3447 69.5416 12.1329C68.9995 11.5815 68.397 11.1083 67.7945 10.6256C67.6777 10.5288 67.5609 10.432 67.4405 10.3323C65.6312 8.84817 63.6463 7.54144 61.5831 6.44174C61.3762 6.33016 61.1719 6.21373 60.9677 6.09721C55.879 3.24242 49.6824 1.5541 43.8487 1.52773C43.6619 1.52648 43.6619 1.52648 43.4715 1.52519C43.072 1.52312 42.6726 1.52235 42.2731 1.52214C42.1367 1.52205 42.0003 1.52197 41.8597 1.52189C39.8934 1.52374 37.9769 1.56768 36.0358 1.91015Z" fill="white"/>
<path d="M107.513 35.3242C107.596 35.4084 107.68 35.4926 107.766 35.5793C107.84 35.645 107.914 35.7108 107.99 35.7785C109.519 37.1714 110.282 39.3403 110.409 41.3684C110.472 43.8965 109.706 46.2195 107.982 48.0798C106.38 49.7345 104.221 50.7505 101.913 50.7874C99.7462 50.783 97.9278 50.2871 96.1095 49.0704C96.1095 52.5375 96.1095 56.0046 96.1095 59.5768C94.9712 59.5768 93.8329 59.5768 92.6601 59.5768C92.652 57.1617 92.6455 54.7466 92.6416 52.3315C92.6398 51.21 92.6373 50.0885 92.6332 48.967C92.6296 47.9889 92.6273 47.0107 92.6265 46.0326C92.6261 45.5152 92.625 44.9979 92.6224 44.4806C92.6199 43.9924 92.6192 43.5042 92.6197 43.016C92.6196 42.838 92.6189 42.66 92.6176 42.4821C92.5978 39.8074 93.3728 37.4833 95.2077 35.5098C98.5867 32.3337 104.108 32.0027 107.513 35.3242ZM97.6038 38.0343C96.4536 39.2746 96.0482 40.6769 96.0766 42.3361C96.1263 43.4923 96.5854 44.4756 97.299 45.3693C97.3646 45.4515 97.4303 45.5337 97.4979 45.6184C98.3784 46.6042 99.7801 47.3217 101.105 47.399C102.818 47.4119 104.233 46.8641 105.477 45.6827C106.487 44.6052 106.949 43.3189 106.993 41.8399C106.949 40.4483 106.495 39.3963 105.625 38.3253C105.566 38.2493 105.506 38.1732 105.445 38.0949C104.514 37.0325 103.137 36.5509 101.77 36.4263C100.189 36.3848 98.7668 36.959 97.6038 38.0343Z" fill="white"/>
<path d="M136.907 35.2227C136.996 35.3007 137.085 35.3788 137.176 35.4592C138.699 36.8814 139.722 38.9553 139.802 41.0514C139.841 43.7867 139.31 46.0593 137.383 48.1169C135.748 49.7761 133.663 50.7494 131.33 50.7889C128.739 50.7834 126.553 50.069 124.656 48.2363C122.845 46.3477 122.078 44.1261 122.102 41.5323C122.167 39.3521 122.965 37.4426 124.418 35.8197C124.48 35.7467 124.541 35.6738 124.605 35.5986C125.621 34.4766 127.046 33.7679 128.462 33.3125C128.549 33.2846 128.635 33.2568 128.724 33.2281C131.546 32.4279 134.754 33.2584 136.907 35.2227ZM126.867 38.2005C125.932 39.4164 125.341 40.8297 125.489 42.3861C125.809 44.1738 126.521 45.4194 127.996 46.4655C128.484 46.7728 128.984 46.988 129.533 47.1617C129.604 47.1847 129.675 47.2076 129.748 47.2312C131.278 47.5242 132.715 47.2324 134.016 46.396C135.201 45.5801 135.954 44.5122 136.313 43.1025C136.34 43.0064 136.367 42.9104 136.395 42.8115C136.588 41.2172 136.221 39.7716 135.245 38.498C134.215 37.2745 132.931 36.5704 131.335 36.3751C129.677 36.32 127.995 36.9574 126.867 38.2005Z" fill="white"/>
<path d="M45.7138 38.1044C46.719 39.2273 47.1869 40.5086 47.1421 42.0121C47.0184 43.1257 46.6643 44.0644 45.9113 44.8915C45.8198 45.0016 45.8198 45.0016 45.7264 45.1139C45.1055 45.8101 44.1288 46.3704 43.1881 46.4666C41.5267 46.5296 40.2208 46.3716 38.8976 45.258C37.9237 44.2636 37.4718 43.0604 37.4141 41.6829C37.459 40.2888 37.9493 39.1073 38.8935 38.0862C40.8263 36.3805 43.7868 36.3165 45.7138 38.1044Z" fill="white"/>
<path d="M24.2267 37.2121C25.4263 37.8882 26.3759 38.8698 26.8068 40.201C27.0931 41.6312 27.0095 43.0898 26.2302 44.3442C25.476 45.3952 24.4785 46.1851 23.198 46.4434C21.7599 46.5989 20.4575 46.4857 19.243 45.6375C18.0106 44.6261 17.4602 43.5556 17.2739 41.9723C17.201 40.6426 17.6132 39.4669 18.4104 38.406C19.8229 36.8523 22.3058 36.3585 24.2267 37.2121Z" fill="white"/>
<path d="M121.681 32.9531C121.681 34.0957 121.681 35.2383 121.681 36.4154C121.131 36.5336 120.582 36.6518 120.016 36.7736C118.446 37.4446 117.352 38.3194 116.686 39.9244C116.389 40.7632 116.311 41.6009 116.304 42.488C116.302 42.6227 116.302 42.6227 116.3 42.7601C116.297 43.054 116.294 43.3479 116.291 43.6418C116.288 43.8467 116.286 44.0516 116.283 44.2566C116.277 44.7938 116.271 45.331 116.265 45.8682C116.259 46.4172 116.252 46.9662 116.246 47.5152C116.233 48.5909 116.221 49.6666 116.209 50.7423C115.071 50.7423 113.933 50.7423 112.76 50.7423C112.755 49.5569 112.75 48.3716 112.748 47.1863C112.746 46.6357 112.745 46.0852 112.742 45.5346C112.739 45.002 112.738 44.4694 112.737 43.9368C112.737 43.735 112.736 43.5331 112.735 43.3312C112.717 40.4649 113.183 37.8616 115.234 35.7192C115.321 35.6337 115.407 35.5483 115.496 35.4603C115.569 35.386 115.641 35.3117 115.716 35.2351C117.304 33.723 119.509 32.9531 121.681 32.9531Z" fill="white"/>
<path d="M125.731 34.625C125.81 34.6644 125.888 34.7038 125.969 34.7444C125.263 35.4536 124.556 36.1627 123.828 36.8934C123.828 36.2363 124.459 35.7912 124.899 35.3413C125.169 35.0908 125.445 34.8575 125.731 34.625Z" fill="white"/>
<path d="M96.107 34.7422C96.1856 34.7816 96.2641 34.821 96.3449 34.8616C95.8739 35.3344 95.4029 35.8071 94.9176 36.2943C94.8391 36.2549 94.7606 36.2155 94.6797 36.1749C95.1226 35.6471 95.5474 35.1507 96.107 34.7422Z" fill="white"/>
<path d="M39.4924 37.6094C39.5709 37.6488 39.6494 37.6882 39.7303 37.7288C39.2985 38.1622 38.8667 38.5955 38.4219 39.0421C38.4219 38.5455 38.6891 38.3084 39.0166 37.9675C39.2917 37.7437 39.2917 37.7437 39.4924 37.6094Z" fill="white"/>
</g>
<defs>
<clipPath id="clip0_16_1863">
<rect width="140" height="84.5283" fill="white"/>
</clipPath>
</defs>
</svg>
