<svg width="140" height="85" viewBox="0 0 140 85" fill="none" xmlns="http://www.w3.org/2000/svg">
<g clip-path="url(#clip0_1_475)">
<path d="M62.3665 18.4965C62.6045 18.7146 62.8398 18.9352 63.0746 19.1569C63.3033 19.3687 63.5311 19.5688 63.7715 19.766C64.0444 19.9965 64.2707 20.2132 64.4982 20.486C64.8228 20.8696 65.1587 21.2384 65.5018 21.6053C70.9196 27.5945 73.4755 35.8445 73.1109 43.8485C72.7106 50.8609 70.0748 57.6905 65.3108 62.8826C65.0841 63.1303 64.8648 63.3827 64.6469 63.6382C63.8918 64.5039 63.0794 65.2722 62.1839 65.9901C61.971 66.1613 61.7604 66.3355 61.5529 66.5133C57.337 70.1099 51.9349 72.2449 46.5075 73.0625C46.4149 73.0767 46.3222 73.0909 46.2268 73.1054C38.4495 74.2326 30.2121 72.0659 23.912 67.3974C23.0924 66.7794 22.3117 66.1248 21.5571 65.4281C21.3063 65.197 21.0509 64.9729 20.7928 64.75C20.0233 64.0753 19.33 63.3418 18.6741 62.5562C18.6236 62.4959 18.5732 62.4356 18.5212 62.3735C17.0592 60.6148 15.8189 58.7279 14.7488 56.7061C14.7084 56.6308 14.668 56.5555 14.6263 56.478C10.9013 49.499 10.2063 40.9217 12.408 33.3597C13.5883 29.4553 15.4047 25.8551 17.9604 22.6798C18.0592 22.5536 18.158 22.4274 18.2568 22.3012C19.7212 20.4885 21.4488 18.6961 23.3432 17.3371C23.5729 17.172 23.7994 17.003 24.0262 16.8339C25.1225 16.0266 26.2565 15.3298 27.4599 14.6954C27.6954 14.5711 27.9294 14.4442 28.1633 14.3169C37.9071 9.11992 50.6176 9.99524 62.3665 18.4965ZM32.8287 26.2616C32.8206 28.3944 32.8141 30.5272 32.8102 32.66C32.8084 33.6505 32.8059 34.641 32.8018 35.6314C32.7982 36.4955 32.7959 37.3596 32.7951 38.2236C32.7947 38.6805 32.7936 39.1373 32.791 39.5941C32.7885 40.0256 32.7878 40.457 32.7883 40.8885C32.7882 41.1193 32.7863 41.35 32.7843 41.5808C32.7923 43.9028 33.4679 45.7825 34.8508 47.6324C34.9345 47.7499 34.9345 47.7499 35.0199 47.8698C36.4356 49.7074 38.9041 50.9197 41.155 51.2141C43.8223 51.3958 46.3278 50.8537 48.3916 49.0623C48.4764 48.9844 48.5612 48.9065 48.6486 48.8263C48.7702 48.7206 48.7702 48.7206 48.8944 48.6127C50.4747 47.1537 51.5709 44.8479 51.6622 42.6959C51.7099 39.7052 50.943 37.3513 48.8507 35.1692C47.0703 33.4494 44.6446 32.5198 42.1862 32.5392C40.5805 32.5921 39.1893 33.2219 38.0549 34.3652C37.9922 34.4338 37.9295 34.5024 37.8649 34.5732C37.7055 34.7383 37.7055 34.7383 37.4676 34.8576C37.4087 30.6026 37.4087 30.6026 37.3487 26.2616C35.8571 26.2616 34.3655 26.2616 32.8287 26.2616ZM14.7265 35.7601C13.0307 37.9813 12.5568 40.6437 12.8795 43.3825C13.1647 45.0856 13.9587 46.5961 15.1057 47.8712C15.2064 47.9848 15.2064 47.9848 15.3092 48.1006C16.8208 49.7105 19.1713 50.9418 21.3778 51.0312C23.3794 51.0586 25.003 50.3138 26.5134 49.0217C26.7624 48.8263 26.7624 48.8263 27.1193 48.7069C27.1193 49.4949 27.1193 50.2829 27.1193 51.0947C28.6109 51.0947 30.1024 51.0947 31.6392 51.0947C31.6496 49.3135 31.6496 49.3135 31.6567 47.5324C31.6588 46.8046 31.6613 46.0768 31.6662 45.349C31.6701 44.7615 31.6722 44.1739 31.6731 43.5864C31.6737 43.3636 31.675 43.1408 31.677 42.918C31.6987 40.322 31.3079 37.9954 29.6171 35.9322C29.5255 35.8152 29.4338 35.6982 29.3393 35.5777C29.0131 35.1872 28.6429 34.8771 28.2418 34.5666C28.1688 34.5099 28.0957 34.4532 28.0204 34.3947C23.8263 31.1939 18.1955 31.6875 14.7265 35.7601ZM55.2487 35.7946C53.6244 37.8512 52.9604 40.3309 53.2429 42.9314C53.5901 45.1286 54.5885 46.9242 56.1422 48.4681C56.2278 48.5566 56.3133 48.6451 56.4015 48.7363C57.5373 49.8398 59.0254 50.4804 60.5432 50.8559C60.6319 50.8787 60.7205 50.9015 60.8118 50.925C63.3313 51.314 65.7879 50.7469 67.8886 49.3202C68.1448 49.124 68.3886 48.9192 68.6316 48.7069C68.7362 48.6273 68.7362 48.6273 68.843 48.546C70.3803 47.3459 71.1875 45.5746 71.4863 43.6925C70.9043 43.6807 70.3224 43.672 69.7403 43.6663C69.5424 43.6639 69.3446 43.6606 69.1467 43.6565C68.8618 43.6507 68.5769 43.648 68.2919 43.6459C68.2039 43.6434 68.116 43.641 68.0253 43.6384C67.5869 43.6382 67.3474 43.6766 66.9768 43.9198C66.7505 44.1479 66.5662 44.367 66.3865 44.6327C65.7 45.576 64.7977 46.2224 63.6358 46.4385C61.9678 46.5457 60.5593 46.3689 59.2348 45.2446C58.1415 44.086 57.8669 42.7699 57.8934 41.2264C57.9456 40.0243 58.4859 39.0806 59.3133 38.2384C60.3097 37.3249 61.5017 36.9402 62.8432 36.9778C64.0343 37.0864 65.2331 37.4543 66.0527 38.3773C66.3024 38.6881 66.5297 39.0082 66.7549 39.3376C66.9381 39.6423 66.9381 39.6423 67.2042 39.7526C67.5253 39.763 67.8432 39.7664 68.1642 39.7643C68.2589 39.7641 68.3536 39.764 68.4512 39.7638C68.7542 39.7631 69.0571 39.7616 69.3601 39.7601C69.5653 39.7595 69.7706 39.759 69.9758 39.7585C70.4793 39.7572 70.9828 39.7551 71.4863 39.7526C71.0508 37.3683 69.7986 35.4506 67.7988 34.0619C63.616 31.3071 58.5425 32.0463 55.2487 35.7946Z" fill="#3E3D3D"/>
<path d="M41.7529 0.0726045C42.1654 0.074528 42.5777 0.0726061 42.9902 0.070331C45.4844 0.0678588 47.9415 0.313151 50.3877 0.805794C50.4637 0.82091 50.5398 0.836026 50.6182 0.8516C52.1321 1.15406 53.6045 1.54791 55.0712 2.02954C55.1974 2.07008 55.3237 2.11061 55.4538 2.15237C60.4097 3.76067 65.0275 6.35977 69.0089 9.72654C69.2145 9.89982 69.422 10.0706 69.63 10.2409C71.246 11.5793 72.8193 13.0754 74.1045 14.7395C74.3294 15.0289 74.5655 15.3056 74.806 15.5821C81.7758 23.6364 84.8032 34.8035 84.1313 45.316C83.4007 55.1975 79.2117 64.9383 72.0805 71.8729C71.7717 72.1808 71.4654 72.4908 71.1615 72.8037C70.3984 73.5871 69.6107 74.3009 68.75 74.977C68.5918 75.1047 68.4337 75.2325 68.2756 75.3604C60.9147 81.2671 51.6401 84.4452 42.2324 84.4312C42.1418 84.4311 42.0513 84.4311 41.958 84.431C40.3723 84.4276 38.8045 84.3642 37.2292 84.1701C37.1094 84.1553 36.9897 84.1405 36.8663 84.1253C32.4875 83.5615 28.2573 82.3584 24.264 80.469C24.1562 80.4184 24.0485 80.3678 23.9374 80.3157C20.2068 78.5503 16.7925 76.2131 13.7805 73.3862C13.5491 73.1692 13.3169 72.9551 13.0807 72.7436C12.2336 71.9828 11.4556 71.1763 10.7041 70.3208C10.6484 70.2582 10.5926 70.1957 10.5352 70.1312C8.18233 67.4875 6.25383 64.5121 4.63787 61.3665C4.58238 61.259 4.52689 61.1515 4.46973 61.0408C2.08405 56.3698 0.677928 51.1904 0.236846 45.9652C0.22366 45.825 0.210474 45.6848 0.196888 45.5403C-0.670386 34.6119 2.81156 23.5315 9.87151 15.1625C9.96734 15.0443 10.0632 14.9261 10.1619 14.8043C10.9297 13.8679 11.763 12.9997 12.6147 12.1404C12.777 11.9759 12.777 11.9759 12.9426 11.808C13.6667 11.0844 14.4262 10.4296 15.2241 9.78991C15.3477 9.68543 15.4708 9.58035 15.593 9.47418C18.0953 7.31638 20.966 5.65275 23.9072 4.17857C23.9966 4.13321 24.0861 4.08784 24.1782 4.04111C27.2633 2.48458 30.5934 1.46989 33.973 0.798332C34.1786 0.757081 34.1786 0.757081 34.3882 0.714998C36.8305 0.255419 39.2699 0.0589087 41.7529 0.0726045ZM36.0397 1.91015C35.9165 1.93064 35.7932 1.95113 35.6662 1.97224C29.8248 2.95427 24.2876 5.13103 19.3872 8.47662C19.3153 8.52565 19.2433 8.57469 19.1691 8.62521C17.4656 9.79517 15.8978 11.1224 14.3915 12.5359C14.2664 12.6495 14.1411 12.7628 14.0156 12.8759C13.4238 13.4099 12.8515 13.9448 12.3397 14.5585C12.0961 14.8461 11.8387 15.1185 11.5814 15.3938C10.7914 16.2639 10.0947 17.2031 9.39572 18.1472C9.34235 18.2185 9.28897 18.2897 9.23397 18.3632C2.95439 26.7639 0.506884 37.7666 1.93372 48.0902C2.17972 49.7545 2.53773 51.3848 2.97262 53.0092C3.00309 53.1231 3.03356 53.2371 3.06496 53.3545C3.59403 55.2911 4.32074 57.1369 5.11365 58.9787C5.17736 59.1269 5.17736 59.1269 5.24236 59.2781C7.49404 64.4466 11.2957 69.6543 15.7306 73.1638C16.0201 73.3956 16.299 73.6362 16.5771 73.8816C18.4121 75.4873 20.4852 76.7631 22.5988 77.9618C22.7285 78.0362 22.7285 78.0362 22.8609 78.1122C31.8629 83.2487 43.0205 84.2479 52.9301 81.5435C55.5798 80.8112 58.121 79.8433 60.5545 78.5579C60.7893 78.4348 61.0257 78.3152 61.2624 78.1959C64.1029 76.7482 66.7417 74.8458 69.1069 72.7086C69.2057 72.6195 69.2057 72.6195 69.3065 72.5286C70.5332 71.4179 71.7258 70.2744 72.7942 69.0075C72.889 68.8991 72.9837 68.7908 73.0813 68.6792C79.0406 61.8202 82.543 52.661 82.7857 43.5774C82.7883 43.4827 82.7909 43.388 82.7936 43.2904C83.0016 34.2321 80.2288 24.9394 74.6303 17.7697C74.4616 17.553 74.2953 17.3346 74.1296 17.1156C73.4769 16.2597 72.7837 15.4576 72.0471 14.6737C71.7822 14.3896 71.5279 14.1013 71.2776 13.8044C70.9386 13.4105 70.5675 13.0758 70.1723 12.7397C69.9514 12.5463 69.7487 12.3447 69.5455 12.1329C69.0034 11.5815 68.4009 11.1083 67.7984 10.6256C67.6816 10.5288 67.5648 10.432 67.4444 10.3323C65.6351 8.84817 63.6502 7.54144 61.587 6.44174C61.3801 6.33016 61.1758 6.21373 60.9716 6.09721C55.8829 3.24242 49.6863 1.5541 43.8526 1.52773C43.6659 1.52648 43.6659 1.52648 43.4754 1.52519C43.0759 1.52312 42.6765 1.52235 42.277 1.52214C42.1406 1.52205 42.0042 1.52197 41.8636 1.52189C39.8973 1.52374 37.9808 1.56768 36.0397 1.91015Z" fill="#484747"/>
<path d="M107.513 35.3242C107.596 35.4084 107.68 35.4926 107.766 35.5793C107.84 35.645 107.914 35.7108 107.99 35.7785C109.519 37.1714 110.282 39.3403 110.409 41.3684C110.472 43.8965 109.706 46.2195 107.982 48.0798C106.38 49.7345 104.221 50.7505 101.913 50.7874C99.7462 50.783 97.9278 50.2871 96.1095 49.0704C96.1095 52.5375 96.1095 56.0046 96.1095 59.5768C94.9712 59.5768 93.8329 59.5768 92.6601 59.5768C92.652 57.1617 92.6455 54.7466 92.6416 52.3315C92.6398 51.21 92.6373 50.0885 92.6332 48.967C92.6296 47.9889 92.6273 47.0107 92.6265 46.0326C92.6261 45.5152 92.625 44.9979 92.6224 44.4806C92.6199 43.9924 92.6192 43.5042 92.6197 43.016C92.6196 42.838 92.6189 42.66 92.6176 42.4821C92.5978 39.8074 93.3728 37.4833 95.2077 35.5098C98.5867 32.3337 104.108 32.0027 107.513 35.3242ZM97.6038 38.0343C96.4536 39.2746 96.0482 40.6769 96.0766 42.3361C96.1263 43.4923 96.5854 44.4756 97.299 45.3693C97.3646 45.4515 97.4303 45.5337 97.4979 45.6184C98.3784 46.6042 99.7801 47.3217 101.105 47.399C102.818 47.4119 104.233 46.8641 105.477 45.6827C106.487 44.6052 106.949 43.3189 106.993 41.8399C106.949 40.4483 106.495 39.3963 105.625 38.3253C105.566 38.2493 105.506 38.1732 105.445 38.0949C104.514 37.0325 103.137 36.5509 101.77 36.4263C100.189 36.3848 98.7668 36.959 97.6038 38.0343Z" fill="#414040"/>
<path d="M136.907 35.2227C136.996 35.3007 137.085 35.3788 137.176 35.4592C138.699 36.8814 139.722 38.9553 139.802 41.0514C139.841 43.7867 139.31 46.0593 137.383 48.1169C135.748 49.7761 133.663 50.7494 131.33 50.7889C128.739 50.7834 126.553 50.069 124.656 48.2363C122.845 46.3477 122.078 44.1261 122.102 41.5323C122.167 39.3521 122.965 37.4426 124.418 35.8197C124.48 35.7467 124.541 35.6738 124.605 35.5986C125.621 34.4766 127.046 33.7679 128.462 33.3125C128.549 33.2846 128.635 33.2568 128.724 33.2281C131.546 32.4279 134.754 33.2584 136.907 35.2227ZM126.867 38.2005C125.932 39.4164 125.341 40.8297 125.489 42.3861C125.809 44.1738 126.521 45.4194 127.996 46.4655C128.484 46.7728 128.984 46.988 129.533 47.1617C129.604 47.1847 129.675 47.2076 129.748 47.2312C131.278 47.5242 132.715 47.2324 134.016 46.396C135.201 45.5801 135.954 44.5122 136.313 43.1025C136.34 43.0064 136.367 42.9104 136.395 42.8115C136.588 41.2172 136.221 39.7716 135.245 38.498C134.215 37.2745 132.931 36.5704 131.335 36.3751C129.677 36.32 127.995 36.9574 126.867 38.2005Z" fill="#414040"/>
<path d="M45.7138 38.1044C46.719 39.2273 47.1869 40.5086 47.1421 42.0121C47.0184 43.1257 46.6643 44.0644 45.9113 44.8915C45.8198 45.0016 45.8198 45.0016 45.7264 45.1139C45.1055 45.8101 44.1288 46.3704 43.1881 46.4666C41.5267 46.5296 40.2208 46.3716 38.8976 45.258C37.9237 44.2636 37.4718 43.0604 37.4141 41.6829C37.459 40.2888 37.9493 39.1073 38.8935 38.0862C40.8263 36.3805 43.7868 36.3165 45.7138 38.1044Z" fill="#403F3F"/>
<path d="M24.2228 37.2121C25.4224 37.8882 26.372 38.8698 26.8029 40.201C27.0892 41.6312 27.0056 43.0898 26.2263 44.3442C25.4721 45.3952 24.4746 46.1851 23.1941 46.4434C21.756 46.5989 20.4535 46.4857 19.2391 45.6375C18.0067 44.6261 17.4563 43.5556 17.27 41.9723C17.1971 40.6426 17.6093 39.4669 18.4065 38.406C19.819 36.8523 22.3019 36.3585 24.2228 37.2121Z" fill="#403F3F"/>
<path d="M121.681 32.9531C121.681 34.0957 121.681 35.2383 121.681 36.4154C121.131 36.5336 120.582 36.6518 120.016 36.7736C118.446 37.4446 117.352 38.3194 116.686 39.9244C116.389 40.7632 116.311 41.6009 116.304 42.488C116.302 42.6227 116.302 42.6227 116.3 42.7601C116.297 43.054 116.294 43.3479 116.291 43.6418C116.288 43.8467 116.286 44.0516 116.283 44.2566C116.277 44.7938 116.271 45.331 116.265 45.8682C116.259 46.4172 116.252 46.9662 116.246 47.5152C116.233 48.5909 116.221 49.6666 116.209 50.7423C115.071 50.7423 113.933 50.7423 112.76 50.7423C112.755 49.5569 112.75 48.3716 112.748 47.1863C112.746 46.6357 112.745 46.0852 112.742 45.5346C112.739 45.002 112.738 44.4694 112.737 43.9368C112.737 43.735 112.736 43.5331 112.735 43.3312C112.717 40.4649 113.183 37.8616 115.234 35.7192C115.321 35.6337 115.407 35.5483 115.496 35.4603C115.569 35.386 115.641 35.3117 115.716 35.2351C117.304 33.723 119.509 32.9531 121.681 32.9531Z" fill="#414040"/>
<path d="M125.727 34.625C125.806 34.6644 125.884 34.7038 125.965 34.7444C125.259 35.4536 124.552 36.1627 123.824 36.8934C123.824 36.2363 124.456 35.7912 124.895 35.3413C125.165 35.0908 125.441 34.8575 125.727 34.625Z" fill="#656565"/>
<path d="M96.107 34.7422C96.1856 34.7816 96.2641 34.821 96.3449 34.8616C95.8739 35.3344 95.4029 35.8071 94.9176 36.2943C94.8391 36.2549 94.7606 36.2155 94.6797 36.1749C95.1226 35.6471 95.5474 35.1507 96.107 34.7422Z" fill="#6D6C6C"/>
<path d="M39.4885 37.6094C39.567 37.6488 39.6455 37.6882 39.7264 37.7288C39.2946 38.1622 38.8628 38.5955 38.418 39.0421C38.418 38.5455 38.6852 38.3084 39.0127 37.9675C39.2878 37.7437 39.2878 37.7437 39.4885 37.6094Z" fill="#6C6B6B"/>
</g>
<defs>
<clipPath id="clip0_1_475">
<rect width="140" height="84.5283" fill="white"/>
</clipPath>
</defs>
</svg>
